<svg
 xmlns="http://www.w3.org/2000/svg"
 xmlns:xlink="http://www.w3.org/1999/xlink"
 width="24px" height="20px">
<path fill-rule="evenodd" d="M23.111,5.567 L21.072,14.209 C20.935,14.786 20.425,15.190 19.831,15.190 L8.132,15.190 C7.538,15.190 7.028,14.786 6.891,14.208 L4.236,3.000 L1.500,3.000 C0.672,3.000 -0.000,2.329 -0.000,1.500 C-0.000,0.672 0.672,0.000 1.500,0.000 L4.500,0.000 C5.087,0.000 5.583,0.346 5.829,0.837 C6.178,0.996 6.453,1.298 6.547,1.692 L7.095,3.999 L21.871,3.999 C22.263,3.999 22.627,4.176 22.870,4.483 C23.114,4.791 23.201,5.185 23.111,5.567 ZM7.703,6.549 L9.141,12.641 L18.823,12.641 L20.260,6.549 L7.703,6.549 ZM9.779,16.403 C10.765,16.403 11.563,17.202 11.563,18.187 C11.563,19.172 10.765,19.970 9.779,19.970 C8.794,19.970 7.995,19.172 7.995,18.187 C7.995,17.202 8.794,16.403 9.779,16.403 ZM18.270,16.403 C19.256,16.403 20.054,17.202 20.054,18.187 C20.054,19.172 19.256,19.970 18.270,19.970 C17.285,19.970 16.487,19.172 16.487,18.187 C16.487,17.202 17.285,16.403 18.270,16.403 Z"/>
</svg>