<svg
 xmlns="http://www.w3.org/2000/svg"
 xmlns:xlink="http://www.w3.org/1999/xlink"
 width="23px" height="22px">
<path fill-rule="evenodd" d="M22.005,18.983 L12.963,18.983 L12.963,21.069 C12.963,21.275 12.871,21.473 12.711,21.605 C12.585,21.709 12.428,21.765 12.267,21.765 C12.224,21.765 12.181,21.760 12.139,21.752 L1.010,19.665 C0.680,19.604 0.443,19.316 0.443,18.983 L0.443,3.681 C0.443,3.345 0.680,3.058 1.010,2.997 L12.139,0.911 C12.339,0.869 12.552,0.926 12.711,1.058 C12.871,1.191 12.963,1.387 12.963,1.594 L12.963,3.681 L22.005,3.681 C22.389,3.681 22.700,3.992 22.700,4.376 L22.700,18.287 C22.700,18.671 22.389,18.983 22.005,18.983 ZM10.034,8.282 C10.271,7.978 10.216,7.541 9.913,7.305 C9.610,7.069 9.173,7.125 8.937,7.427 L6.876,10.075 L5.140,8.091 C4.884,7.801 4.446,7.773 4.158,8.026 C3.869,8.280 3.840,8.719 4.093,9.007 L6.006,11.194 L4.066,13.687 C3.831,13.990 3.886,14.427 4.189,14.663 C4.317,14.762 4.467,14.809 4.616,14.809 C4.822,14.809 5.028,14.717 5.165,14.542 L6.939,12.261 L8.962,14.571 C9.099,14.729 9.291,14.809 9.485,14.809 C9.648,14.809 9.810,14.752 9.942,14.637 C10.232,14.384 10.261,13.944 10.008,13.656 L7.808,11.142 L10.034,8.282 ZM21.309,5.072 L12.963,5.072 L12.963,6.463 L15.049,6.463 C15.433,6.463 15.745,6.774 15.745,7.158 C15.745,7.542 15.433,7.854 15.049,7.854 L12.963,7.854 L12.963,9.245 L15.049,9.245 C15.433,9.245 15.745,9.556 15.745,9.940 C15.745,10.325 15.433,10.636 15.049,10.636 L12.963,10.636 L12.963,12.027 L15.049,12.027 C15.433,12.027 15.745,12.339 15.745,12.723 C15.745,13.107 15.433,13.418 15.049,13.418 L12.963,13.418 L12.963,14.809 L15.049,14.809 C15.433,14.809 15.745,15.121 15.745,15.505 C15.745,15.889 15.433,16.200 15.049,16.200 L12.963,16.200 L12.963,17.592 L21.309,17.592 L21.309,5.072 ZM17.831,6.463 L19.222,6.463 C19.606,6.463 19.918,6.774 19.918,7.158 C19.918,7.542 19.606,7.854 19.222,7.854 L17.831,7.854 C17.447,7.854 17.136,7.542 17.136,7.158 C17.136,6.774 17.447,6.463 17.831,6.463 ZM17.831,9.245 L19.222,9.245 C19.606,9.245 19.918,9.556 19.918,9.940 C19.918,10.325 19.606,10.636 19.222,10.636 L17.831,10.636 C17.447,10.636 17.136,10.325 17.136,9.940 C17.136,9.556 17.447,9.245 17.831,9.245 ZM17.831,12.027 L19.222,12.027 C19.606,12.027 19.918,12.339 19.918,12.723 C19.918,13.107 19.606,13.418 19.222,13.418 L17.831,13.418 C17.447,13.418 17.136,13.107 17.136,12.723 C17.136,12.339 17.447,12.027 17.831,12.027 ZM17.831,14.809 L19.222,14.809 C19.606,14.809 19.918,15.121 19.918,15.505 C19.918,15.889 19.606,16.200 19.222,16.200 L17.831,16.200 C17.447,16.200 17.136,15.889 17.136,15.505 C17.136,15.121 17.447,14.809 17.831,14.809 Z"/>
</svg>