<svg
 xmlns="http://www.w3.org/2000/svg"
 xmlns:xlink="http://www.w3.org/1999/xlink"
 width="20px" height="20px">
<path fill-rule="evenodd" d="M19.440,8.062 C19.058,7.271 18.419,6.633 17.629,6.250 L5.630,0.816 C3.689,-0.124 1.354,0.686 0.414,2.627 C-0.065,3.616 -0.105,4.760 0.303,5.780 L2.016,9.764 L0.303,13.749 C-0.495,15.757 0.487,18.032 2.495,18.830 C2.950,19.010 3.434,19.104 3.922,19.106 C4.514,19.106 5.097,18.973 5.630,18.716 L17.628,13.278 C19.569,12.338 20.380,10.003 19.440,8.062 ZM4.496,16.370 C3.849,16.683 3.071,16.412 2.758,15.765 C2.598,15.436 2.585,15.054 2.721,14.714 L4.298,11.065 L16.227,11.065 L4.496,16.370 ZM4.298,8.463 L2.721,4.813 C2.514,4.316 2.643,3.742 3.043,3.382 C3.430,3.004 4.015,2.916 4.496,3.162 L16.227,8.463 L4.298,8.463 L4.298,8.463 Z"/>
</svg>