<svg
 xmlns="http://www.w3.org/2000/svg"
 xmlns:xlink="http://www.w3.org/1999/xlink"
 width="13px" height="9px">
<path fill-rule="evenodd" d="M12.439,8.287 L9.153,4.998 L12.522,1.629 C12.571,1.756 12.600,1.893 12.600,2.036 L12.600,7.708 C12.600,7.920 12.539,8.116 12.439,8.287 ZM6.434,6.076 L1.369,1.012 C1.530,0.928 1.709,0.876 1.902,0.876 L11.440,0.876 C11.653,0.876 11.849,0.938 12.021,1.038 L6.980,6.076 C6.836,6.223 6.581,6.223 6.434,6.076 ZM0.898,8.278 C0.801,8.109 0.742,7.916 0.742,7.708 L0.742,2.036 C0.742,1.872 0.777,1.716 0.839,1.574 L4.219,4.955 L0.898,8.278 ZM5.887,6.625 C6.346,7.079 7.078,7.071 7.529,6.625 L8.604,5.547 L11.849,8.790 C11.721,8.838 11.585,8.868 11.440,8.868 L1.902,8.868 C1.754,8.868 1.613,8.837 1.483,8.787 L4.768,5.504 L5.887,6.625 Z"/>
</svg>