<svg
 xmlns="http://www.w3.org/2000/svg"
 xmlns:xlink="http://www.w3.org/1999/xlink"
 width="22px" height="21px">
<path fill-rule="evenodd" d="M19.758,3.898 L19.758,3.898 C18.784,2.924 17.490,2.388 16.113,2.388 C14.736,2.388 13.442,2.924 12.468,3.898 L5.907,10.459 C4.701,11.664 4.701,13.626 5.907,14.832 C7.113,16.038 9.075,16.038 10.281,14.832 L14.067,11.046 C14.470,10.644 14.470,9.991 14.067,9.588 C13.664,9.186 13.012,9.186 12.609,9.588 L8.823,13.374 C8.421,13.776 7.767,13.776 7.365,13.374 C6.963,12.973 6.963,12.318 7.365,11.917 L13.926,5.356 C14.510,4.771 15.287,4.449 16.113,4.449 C16.939,4.449 17.716,4.771 18.300,5.356 C19.506,6.561 19.506,8.523 18.300,9.729 L11.010,17.019 C9.000,19.029 5.730,19.029 3.720,17.019 C2.747,16.046 2.210,14.751 2.210,13.374 C2.210,11.998 2.747,10.703 3.720,9.729 L11.010,2.439 C11.413,2.037 11.413,1.384 11.010,0.981 C10.607,0.579 9.955,0.579 9.552,0.981 L2.262,8.271 C0.899,9.634 0.149,11.446 0.149,13.374 C0.149,15.302 0.899,17.114 2.262,18.477 C5.076,21.291 9.654,21.291 12.468,18.477 L19.758,11.187 C21.768,9.177 21.768,5.907 19.758,3.898 Z"/>
</svg>