<svg
 xmlns="http://www.w3.org/2000/svg"
 xmlns:xlink="http://www.w3.org/1999/xlink"
 width="11px" height="11px">
<path fill-rule="evenodd" d="M8.889,6.752 C8.515,6.382 8.047,6.382 7.675,6.752 C7.391,7.033 7.107,7.315 6.828,7.601 C6.752,7.680 6.687,7.697 6.594,7.644 C6.410,7.544 6.215,7.463 6.038,7.353 C5.215,6.835 4.526,6.170 3.915,5.421 C3.612,5.048 3.342,4.650 3.154,4.201 C3.115,4.111 3.123,4.051 3.197,3.977 C3.480,3.703 3.757,3.421 4.036,3.140 C4.425,2.748 4.425,2.290 4.034,1.897 C3.812,1.672 3.590,1.453 3.368,1.229 C3.139,0.999 2.913,0.768 2.681,0.541 C2.307,0.176 1.839,0.176 1.467,0.544 C1.180,0.825 0.906,1.114 0.615,1.391 C0.345,1.646 0.209,1.959 0.181,2.324 C0.135,2.918 0.281,3.478 0.486,4.025 C0.906,5.156 1.545,6.160 2.321,7.081 C3.368,8.327 4.619,9.312 6.081,10.023 C6.740,10.343 7.422,10.588 8.164,10.629 C8.675,10.658 9.119,10.529 9.474,10.130 C9.717,9.858 9.992,9.610 10.249,9.350 C10.631,8.964 10.633,8.496 10.254,8.114 C9.801,7.659 9.345,7.205 8.889,6.752 Z"/>
</svg>