<svg
 xmlns="http://www.w3.org/2000/svg"
 xmlns:xlink="http://www.w3.org/1999/xlink"
 width="16px" height="15px">
<path fill-rule="evenodd" d="M15.164,13.205 L12.008,10.048 C12.775,8.982 13.197,7.706 13.197,6.364 C13.197,4.674 12.539,3.084 11.342,1.888 C10.147,0.692 8.556,0.033 6.865,0.033 C5.174,0.033 3.583,0.691 2.388,1.888 C1.192,3.083 0.533,4.673 0.533,6.364 C0.533,8.056 1.192,9.645 2.388,10.842 C3.583,12.037 5.173,12.697 6.865,12.697 C8.206,12.697 9.480,12.277 10.548,11.508 L13.704,14.665 C13.907,14.867 14.170,14.967 14.434,14.967 C14.699,14.967 14.963,14.867 15.164,14.665 C15.567,14.262 15.567,13.608 15.164,13.205 ZM3.848,9.382 C3.042,8.575 2.598,7.503 2.598,6.364 C2.598,5.225 3.042,4.153 3.848,3.347 C4.654,2.541 5.725,2.097 6.865,2.097 C8.004,2.097 9.076,2.541 9.882,3.347 C10.688,4.153 11.132,5.225 11.132,6.364 C11.132,7.504 10.689,8.575 9.882,9.382 C9.076,10.189 8.005,10.631 6.865,10.631 C5.724,10.631 4.653,10.187 3.848,9.382 Z"/>
</svg>