<svg
 xmlns="http://www.w3.org/2000/svg"
 xmlns:xlink="http://www.w3.org/1999/xlink"
 width="30px" height="23px">
<path fill-rule="evenodd" d="M28.233,5.951 L26.388,5.951 L26.388,7.787 C26.388,8.383 25.905,8.866 25.309,8.866 C24.713,8.866 24.230,8.383 24.230,7.787 L24.230,5.951 L22.375,5.951 C21.779,5.951 21.296,5.468 21.296,4.872 C21.296,4.276 21.779,3.793 22.375,3.793 L24.230,3.793 L24.230,1.929 C24.230,1.333 24.713,0.850 25.309,0.850 C25.905,0.850 26.388,1.333 26.388,1.929 L26.388,3.793 L28.233,3.793 C28.829,3.793 29.312,4.276 29.312,4.872 C29.312,5.468 28.829,5.951 28.233,5.951 ZM21.558,8.773 L19.672,16.766 C19.546,17.300 19.074,17.674 18.525,17.674 L7.704,17.674 C7.155,17.674 6.683,17.300 6.557,16.765 L4.102,6.400 L1.571,6.400 C0.804,6.400 0.183,5.778 0.183,5.012 C0.183,4.246 0.804,3.625 1.571,3.625 L4.345,3.625 C4.888,3.625 5.346,3.945 5.574,4.399 C5.897,4.546 6.151,4.825 6.238,5.189 L6.745,7.324 L20.411,7.324 C20.773,7.324 21.110,7.487 21.335,7.771 C21.560,8.055 21.642,8.420 21.558,8.773 ZM7.308,9.681 L8.638,15.316 L17.592,15.316 L18.921,9.681 L7.308,9.681 ZM9.228,18.795 C10.139,18.795 10.878,19.534 10.878,20.445 C10.878,21.356 10.139,22.095 9.228,22.095 C8.317,22.095 7.578,21.356 7.578,20.445 C7.578,19.534 8.317,18.795 9.228,18.795 ZM17.081,18.795 C17.992,18.795 18.731,19.534 18.731,20.445 C18.731,21.356 17.992,22.095 17.081,22.095 C16.170,22.095 15.431,21.356 15.431,20.445 C15.431,19.534 16.170,18.795 17.081,18.795 Z"/>
</svg>