<svg
 xmlns="http://www.w3.org/2000/svg"
 xmlns:xlink="http://www.w3.org/1999/xlink"
 width="34px" height="35px">
<path fill-rule="evenodd" d="M17.000,34.500 C26.391,34.500 34.000,26.891 34.000,17.500 C34.000,8.109 26.391,0.500 17.000,0.500 C7.609,0.500 0.000,8.109 0.000,17.500 C0.000,26.891 7.609,34.500 17.000,34.500 ZM7.779,17.132 L24.170,10.812 C24.931,10.537 25.595,10.997 25.348,12.148 L25.350,12.147 L22.559,25.295 C22.352,26.227 21.798,26.453 21.023,26.014 L16.773,22.882 L14.723,24.857 C14.497,25.084 14.306,25.274 13.866,25.274 L14.168,20.950 L22.045,13.834 C22.388,13.532 21.968,13.362 21.516,13.662 L11.782,19.791 L7.586,18.482 C6.675,18.193 6.656,17.571 7.779,17.132 L7.779,17.132 Z"/>
</svg>