<svg
 xmlns="http://www.w3.org/2000/svg"
 xmlns:xlink="http://www.w3.org/1999/xlink"
 width="33px" height="33px">
<path fill-rule="evenodd" d="M24.849,0.500 L8.625,0.500 C4.163,0.500 0.500,4.163 0.500,8.651 L0.500,24.875 C0.500,29.337 4.163,33.000 8.625,33.000 L24.849,33.000 C29.337,33.000 33.000,29.337 33.000,24.849 L33.000,8.651 C33.000,4.163 29.337,0.500 24.849,0.500 ZM15.873,7.181 C15.925,6.381 16.673,6.665 17.060,6.613 C21.909,6.768 26.087,11.127 26.036,15.821 C26.036,16.286 26.191,16.956 25.494,16.956 C24.823,16.956 25.004,16.260 24.927,15.796 C24.282,10.817 21.960,8.470 16.905,7.696 C16.492,7.645 15.847,7.722 15.873,7.181 ZM23.121,16.028 C22.347,16.131 22.502,15.460 22.425,15.022 C21.909,11.978 20.825,10.869 17.704,10.199 C17.240,10.095 16.518,10.173 16.647,9.476 C16.750,8.806 17.395,9.038 17.885,9.090 C21.006,9.450 23.560,12.107 23.534,15.022 C23.482,15.331 23.689,15.925 23.121,16.028 ZM21.187,14.429 C21.187,14.841 21.135,15.228 20.671,15.280 C20.335,15.331 20.129,15.048 20.077,14.713 C19.948,13.474 19.278,12.726 17.988,12.520 C17.601,12.468 17.240,12.339 17.421,11.824 C17.550,11.488 17.859,11.437 18.194,11.437 C19.587,11.411 21.187,13.036 21.187,14.429 ZM26.087,23.947 C25.546,25.417 23.714,26.913 22.141,26.887 C21.909,26.836 21.470,26.758 21.083,26.603 C14.171,23.688 9.141,18.891 6.304,12.030 C5.349,9.734 6.355,7.774 8.754,7.000 C9.192,6.845 9.605,6.845 10.044,7.000 C11.075,7.361 13.681,10.895 13.732,11.927 C13.784,12.726 13.216,13.165 12.675,13.526 C11.617,14.222 11.617,15.099 12.081,16.105 C13.087,18.323 14.815,19.871 17.060,20.851 C17.859,21.212 18.659,21.187 19.200,20.361 C20.181,18.891 21.393,18.968 22.708,19.871 C23.379,20.335 24.050,20.774 24.669,21.264 C25.520,21.960 26.603,22.528 26.087,23.947 Z"/>
</svg>