<svg
 xmlns="http://www.w3.org/2000/svg"
 xmlns:xlink="http://www.w3.org/1999/xlink"
 width="34px" height="33px">
<path fill-rule="evenodd" d="M17.004,0.000 L16.996,0.000 C7.898,0.000 0.500,7.400 0.500,16.500 C0.500,20.110 1.663,23.455 3.641,26.171 L1.585,32.301 L7.927,30.274 C10.536,32.002 13.648,33.000 17.004,33.000 C26.102,33.000 33.500,25.598 33.500,16.500 C33.500,7.402 26.102,0.000 17.004,0.000 ZM26.605,23.300 C26.207,24.424 24.627,25.356 23.367,25.628 C22.505,25.812 21.379,25.959 17.588,24.387 C12.739,22.378 9.616,17.451 9.373,17.131 C9.140,16.812 7.414,14.522 7.414,12.154 C7.414,9.787 8.616,8.634 9.101,8.139 C9.499,7.732 10.157,7.547 10.788,7.547 C10.992,7.547 11.176,7.557 11.340,7.565 C11.825,7.586 12.069,7.615 12.388,8.380 C12.786,9.339 13.756,11.707 13.871,11.950 C13.989,12.194 14.106,12.524 13.941,12.843 C13.787,13.173 13.651,13.320 13.407,13.600 C13.164,13.881 12.933,14.095 12.689,14.396 C12.467,14.658 12.215,14.939 12.496,15.423 C12.776,15.898 13.745,17.480 15.173,18.751 C17.014,20.390 18.508,20.914 19.042,21.136 C19.440,21.302 19.914,21.262 20.205,20.953 C20.574,20.555 21.030,19.895 21.494,19.245 C21.824,18.779 22.241,18.722 22.678,18.887 C23.124,19.041 25.481,20.207 25.966,20.448 C26.450,20.691 26.770,20.807 26.888,21.011 C27.003,21.215 27.003,22.174 26.605,23.300 Z"/>
</svg>