<svg
 xmlns="http://www.w3.org/2000/svg"
 xmlns:xlink="http://www.w3.org/1999/xlink"
 width="36px" height="37px">
<path fill-rule="evenodd"  fill="rgb(91, 108, 127)"
 d="M35.146,17.409 C35.095,17.416 35.044,17.424 34.992,17.424 C34.561,17.424 34.182,17.117 34.109,16.679 C33.502,13.121 31.822,9.878 29.243,7.299 C26.665,4.720 23.421,3.040 19.864,2.434 C19.382,2.354 19.053,1.893 19.133,1.404 C19.214,0.922 19.674,0.593 20.163,0.673 C24.093,1.338 27.665,3.193 30.514,6.035 C33.356,8.877 35.212,12.449 35.876,16.379 C35.964,16.861 35.635,17.329 35.146,17.409 ZM19.864,7.182 C22.238,7.584 24.400,8.702 26.132,10.425 C27.848,12.142 28.973,14.312 29.375,16.686 C29.463,17.168 29.134,17.636 28.644,17.716 C28.593,17.723 28.542,17.731 28.491,17.731 C28.060,17.731 27.680,17.424 27.607,16.985 C27.264,14.976 26.314,13.143 24.860,11.689 C23.400,10.235 21.573,9.286 19.564,8.943 C19.082,8.862 18.753,8.402 18.834,7.912 C18.914,7.430 19.374,7.102 19.864,7.182 ZM13.034,13.720 C12.457,14.312 11.857,14.918 11.215,15.502 C11.675,16.569 12.325,17.607 13.311,18.848 C15.269,21.251 17.314,23.122 19.572,24.553 C19.798,24.692 20.054,24.824 20.331,24.962 C20.551,25.072 20.777,25.181 20.996,25.306 L23.458,22.844 C24.196,22.106 25.058,21.719 25.956,21.719 C26.862,21.719 27.717,22.113 28.433,22.859 L32.596,27.022 C34.101,28.528 34.109,30.507 32.611,32.070 C32.297,32.406 31.961,32.728 31.632,33.042 C31.150,33.502 30.697,33.940 30.295,34.422 C30.288,34.430 30.273,34.444 30.266,34.452 C29.141,35.671 27.709,36.292 25.993,36.292 C25.832,36.292 25.679,36.285 25.518,36.278 C22.939,36.110 20.624,35.146 18.892,34.320 C14.349,32.121 10.375,29.002 7.066,25.058 C4.348,21.785 2.514,18.724 1.295,15.430 C0.506,13.296 0.199,11.529 0.330,9.863 C0.447,8.526 0.988,7.372 1.937,6.422 L4.531,3.836 C5.276,3.121 6.138,2.748 7.029,2.748 C7.928,2.748 8.775,3.121 9.491,3.836 C9.966,4.275 10.440,4.764 10.901,5.232 C11.134,5.465 11.368,5.706 11.609,5.947 L13.677,8.015 C15.240,9.571 15.240,11.507 13.677,13.070 C13.457,13.289 13.246,13.508 13.034,13.720 ZM12.420,9.271 L10.353,7.204 C10.104,6.963 9.863,6.715 9.630,6.474 C9.162,5.999 8.717,5.546 8.256,5.115 C7.862,4.728 7.453,4.530 7.036,4.530 C6.613,4.530 6.182,4.728 5.787,5.107 L3.208,7.686 C2.551,8.336 2.200,9.096 2.120,10.009 C2.011,11.419 2.273,12.902 2.982,14.808 C4.129,17.906 5.860,20.799 8.446,23.911 C11.587,27.665 15.364,30.624 19.688,32.706 C21.274,33.458 23.378,34.342 25.649,34.488 C25.766,34.496 25.890,34.503 26.007,34.503 C27.227,34.503 28.162,34.108 28.951,33.261 C29.411,32.713 29.916,32.224 30.405,31.756 C30.726,31.442 31.033,31.150 31.325,30.836 C31.903,30.229 32.370,29.309 31.347,28.286 L27.169,24.108 C26.899,23.830 26.482,23.509 25.971,23.509 C25.554,23.509 25.131,23.713 24.736,24.108 L22.143,26.701 C22.026,26.825 21.661,27.190 21.084,27.190 C20.850,27.190 20.624,27.132 20.390,27.015 C20.361,27.001 20.339,26.986 20.309,26.971 C20.083,26.832 19.827,26.701 19.550,26.562 C19.243,26.409 18.929,26.248 18.629,26.058 C16.204,24.517 14.013,22.523 11.931,19.959 C10.776,18.498 10.024,17.278 9.491,15.992 C9.483,15.970 9.476,15.955 9.469,15.934 C9.323,15.510 9.235,14.940 9.827,14.348 C9.841,14.334 9.849,14.326 9.863,14.312 C10.528,13.720 11.127,13.107 11.770,12.456 C11.982,12.237 12.201,12.018 12.420,11.799 C13.267,10.952 13.267,10.119 12.420,9.271 Z"/>
</svg>