<svg
 xmlns="http://www.w3.org/2000/svg"
 xmlns:xlink="http://www.w3.org/1999/xlink"
 width="41px" height="41px">
<path fill-rule="evenodd"  fill="rgb(91, 108, 127)"
 d="M34.838,17.622 C34.895,17.626 34.951,17.638 35.005,17.656 C35.059,17.638 35.115,17.626 35.172,17.622 L40.180,17.622 C40.261,17.624 40.339,17.640 40.414,17.669 C40.435,17.678 40.457,17.688 40.477,17.700 C40.612,17.768 40.721,17.880 40.786,18.016 C40.789,18.022 40.794,18.026 40.796,18.033 L40.797,18.034 C40.826,18.108 40.842,18.187 40.843,18.266 C40.844,18.274 40.848,18.282 40.848,18.290 L40.848,22.297 C40.848,22.474 40.778,22.644 40.653,22.769 L36.646,26.775 L23.302,40.787 L23.295,40.791 C23.240,40.847 23.175,40.891 23.104,40.924 C23.096,40.928 23.089,40.937 23.080,40.941 C22.997,40.976 22.908,40.994 22.818,40.994 L1.449,40.994 C1.081,40.994 0.782,40.696 0.782,40.327 L0.782,36.320 C0.783,36.143 0.853,35.973 0.978,35.848 L9.463,27.362 L9.463,26.637 C9.461,24.979 8.117,23.634 6.458,23.632 L1.449,23.632 C1.081,23.632 0.782,23.333 0.782,22.965 L0.782,18.958 C0.782,18.943 0.789,18.931 0.790,18.917 C0.798,18.835 0.817,18.754 0.848,18.677 C0.879,18.607 0.923,18.542 0.977,18.487 L0.978,18.486 L18.339,1.124 C18.465,0.998 18.634,0.928 18.812,0.928 L40.180,0.928 C40.260,0.929 40.339,0.945 40.414,0.975 C40.435,0.984 40.456,0.994 40.477,1.005 C40.527,1.030 40.574,1.062 40.616,1.099 C40.634,1.113 40.651,1.129 40.667,1.145 C40.716,1.197 40.756,1.257 40.786,1.322 C40.789,1.328 40.794,1.332 40.796,1.338 L40.797,1.340 C40.826,1.414 40.842,1.492 40.843,1.571 C40.844,1.580 40.848,1.587 40.848,1.595 L40.848,5.602 C40.847,5.779 40.777,5.949 40.652,6.075 L31.859,14.868 C31.986,16.421 33.281,17.617 34.838,17.622 ZM23.486,38.657 L35.690,25.843 L39.512,22.020 L39.513,22.020 L39.513,19.902 L36.646,22.769 L23.486,36.587 L23.486,38.657 ZM3.061,35.652 L6.458,35.652 C8.117,35.651 9.461,34.306 9.463,32.647 L9.463,29.251 L3.061,35.652 ZM2.117,22.297 L6.458,22.297 C8.854,22.299 10.796,24.241 10.798,26.637 L10.798,32.647 C10.796,35.043 8.854,36.985 6.458,36.988 L2.117,36.988 L2.117,39.659 L22.150,39.659 L22.150,36.988 L17.810,36.988 C15.414,36.985 13.472,35.043 13.469,32.647 L13.469,26.637 C13.472,24.241 15.414,22.299 17.810,22.297 L22.150,22.297 L22.150,19.626 L2.117,19.626 L2.117,22.297 ZM19.088,2.263 L3.061,18.290 L22.542,18.290 L38.568,2.263 L19.088,2.263 ZM39.512,5.326 L39.512,3.208 L23.486,19.234 L23.486,21.352 L30.693,14.145 L30.694,14.145 L39.512,5.326 ZM30.727,16.000 L23.291,23.436 C23.165,23.561 22.995,23.632 22.818,23.632 L17.810,23.632 C16.151,23.634 14.807,24.979 14.805,26.637 L14.805,32.647 C14.807,34.306 16.151,35.651 17.810,35.652 L22.532,35.652 L35.690,21.836 L38.568,18.958 L35.172,18.958 C35.115,18.954 35.059,18.943 35.005,18.924 C34.951,18.943 34.895,18.954 34.838,18.958 C32.975,18.955 31.322,17.765 30.727,16.000 ZM30.164,20.327 C29.985,20.326 29.815,20.254 29.690,20.126 C29.563,20.004 29.493,19.835 29.496,19.659 C29.494,19.388 29.657,19.142 29.908,19.038 C30.158,18.934 30.447,18.992 30.638,19.185 C30.761,19.312 30.830,19.482 30.832,19.659 C30.835,19.835 30.765,20.004 30.638,20.126 C30.513,20.254 30.342,20.326 30.164,20.327 ZM27.976,22.917 C27.850,23.049 27.675,23.124 27.493,23.124 C27.225,23.124 26.984,22.965 26.879,22.719 C26.773,22.473 26.825,22.188 27.009,21.995 L27.677,21.295 C27.842,21.122 28.086,21.049 28.319,21.105 C28.551,21.162 28.735,21.338 28.803,21.568 C28.870,21.797 28.809,22.045 28.644,22.217 L27.976,22.917 ZM25.305,25.715 C25.179,25.847 25.004,25.922 24.822,25.922 C24.554,25.922 24.313,25.763 24.208,25.517 C24.102,25.271 24.154,24.987 24.338,24.793 L25.006,24.093 C25.261,23.827 25.684,23.816 25.950,24.071 C26.217,24.326 26.227,24.749 25.973,25.015 L25.305,25.715 ZM22.634,28.513 C22.379,28.780 21.956,28.790 21.689,28.535 C21.423,28.281 21.413,27.858 21.667,27.591 L22.335,26.892 C22.590,26.624 23.012,26.615 23.279,26.869 C23.546,27.124 23.556,27.547 23.302,27.814 L22.634,28.513 ZM19.963,31.312 C19.708,31.578 19.286,31.587 19.020,31.333 C18.753,31.078 18.743,30.657 18.996,30.389 L19.664,29.690 C19.829,29.517 20.073,29.446 20.305,29.502 C20.537,29.558 20.721,29.734 20.788,29.963 C20.855,30.192 20.795,30.439 20.630,30.612 L19.963,31.312 ZM17.476,33.615 C17.107,33.615 16.808,33.316 16.808,32.948 C16.811,32.771 16.880,32.602 17.002,32.473 C17.193,32.281 17.482,32.223 17.732,32.327 C17.983,32.431 18.145,32.676 18.144,32.948 C18.144,33.316 17.845,33.615 17.476,33.615 Z"/>
</svg>