<svg
 xmlns="http://www.w3.org/2000/svg"
 xmlns:xlink="http://www.w3.org/1999/xlink"
 width="60px" height="34px">
<path fill-rule="evenodd"  fill="rgb(91, 108, 127)"
 d="M58.899,28.453 L56.483,28.453 C56.483,28.469 56.484,28.485 56.484,28.502 C56.484,31.084 54.383,33.185 51.801,33.185 C49.219,33.185 47.118,31.084 47.118,28.502 C47.118,28.485 47.119,28.469 47.119,28.453 L27.363,28.453 C27.363,28.469 27.364,28.485 27.364,28.502 C27.364,31.084 25.263,33.185 22.681,33.185 C20.099,33.185 17.999,31.084 17.999,28.502 C17.999,28.485 18.000,28.469 18.000,28.453 L14.006,28.453 C13.163,28.453 12.478,27.767 12.478,26.925 L12.478,25.298 L6.325,25.298 C5.916,25.298 5.585,24.967 5.585,24.559 C5.585,24.150 5.916,23.819 6.325,23.819 L17.161,23.819 C17.569,23.819 17.900,24.150 17.900,24.559 C17.900,24.967 17.569,25.298 17.161,25.298 L13.957,25.298 L13.957,26.925 C13.957,26.952 13.978,26.974 14.006,26.974 L18.256,26.974 C18.891,25.140 20.634,23.819 22.681,23.819 C24.729,23.819 26.472,25.140 27.107,26.974 L45.541,26.974 L45.541,21.404 C45.541,20.995 45.872,20.664 46.280,20.664 C46.688,20.664 47.019,20.995 47.019,21.404 L47.019,26.974 L47.375,26.974 C48.011,25.140 49.754,23.819 51.801,23.819 C53.848,23.819 55.591,25.140 56.226,26.974 L58.160,26.974 L58.160,23.720 L57.322,23.720 C56.044,23.720 55.005,22.681 55.005,21.404 L55.005,19.826 C55.005,19.418 55.336,19.087 55.744,19.087 L58.044,19.087 C57.731,18.116 56.819,17.412 55.746,17.411 C55.745,17.411 55.745,17.411 55.744,17.411 C55.743,17.411 55.743,17.411 55.742,17.411 L47.020,17.411 L47.020,18.249 C47.020,18.657 46.689,18.989 46.280,18.989 C45.872,18.989 45.541,18.657 45.541,18.249 L45.541,1.766 C45.541,1.739 45.519,1.717 45.492,1.717 L14.006,1.717 C13.978,1.717 13.957,1.739 13.957,1.766 L13.957,13.919 C13.957,14.328 13.625,14.659 13.217,14.659 C12.809,14.659 12.478,14.328 12.478,13.919 L12.478,1.766 C12.478,0.923 13.163,0.237 14.006,0.237 L45.492,0.237 C46.334,0.237 47.020,0.923 47.020,1.766 L47.020,3.393 L52.590,3.393 C54.302,3.393 55.695,4.786 55.695,6.498 L55.695,7.287 C55.695,7.642 55.444,7.939 55.110,8.010 L56.333,15.976 C58.202,16.261 59.639,17.879 59.639,19.826 L59.639,27.713 C59.639,28.122 59.308,28.453 58.899,28.453 ZM22.681,25.298 C20.915,25.298 19.477,26.735 19.477,28.502 C19.477,30.269 20.915,31.706 22.681,31.706 C24.448,31.706 25.885,30.269 25.885,28.502 C25.885,26.735 24.448,25.298 22.681,25.298 ZM51.801,25.298 C50.034,25.298 48.597,26.735 48.597,28.502 C48.597,30.269 50.034,31.706 51.801,31.706 C53.568,31.706 55.005,30.269 55.005,28.502 C55.005,26.735 53.568,25.298 51.801,25.298 ZM54.217,6.498 C54.217,5.601 53.487,4.871 52.590,4.871 L47.020,4.871 L47.020,6.547 L54.217,6.547 L54.217,6.498 ZM53.590,8.026 L47.020,8.026 L47.020,15.932 L54.798,15.932 L53.590,8.026 ZM58.160,20.566 L56.484,20.566 L56.484,21.404 C56.484,21.866 56.860,22.242 57.322,22.242 L58.160,22.242 L58.160,20.566 ZM51.801,30.030 C50.959,30.030 50.273,29.345 50.273,28.502 C50.273,27.660 50.959,26.974 51.801,26.974 C52.644,26.974 53.329,27.660 53.329,28.502 C53.329,29.345 52.644,30.030 51.801,30.030 ZM22.681,30.030 C21.839,30.030 21.153,29.345 21.153,28.502 C21.153,27.660 21.839,26.974 22.681,26.974 C23.524,26.974 24.210,27.660 24.210,28.502 C24.210,29.345 23.524,30.030 22.681,30.030 ZM21.104,20.664 C21.512,20.664 21.843,20.995 21.843,21.404 C21.843,21.812 21.512,22.143 21.104,22.143 L11.640,22.143 C11.231,22.143 10.900,21.812 10.900,21.404 C10.900,20.995 11.231,20.664 11.640,20.664 L21.104,20.664 ZM16.031,18.064 C16.031,18.472 15.699,18.803 15.291,18.803 L1.439,18.803 C1.031,18.803 0.700,18.472 0.700,18.064 C0.700,17.656 1.031,17.324 1.439,17.324 L15.291,17.324 C15.700,17.324 16.031,17.656 16.031,18.064 Z"/>
</svg>