<svg
 xmlns="http://www.w3.org/2000/svg"
 xmlns:xlink="http://www.w3.org/1999/xlink"
 width="44px" height="44px">
<path fill-rule="evenodd"  fill="rgb(91, 108, 127)"
 d="M42.856,6.229 C42.470,6.615 41.340,7.514 39.682,8.658 C39.739,8.960 39.768,9.269 39.768,9.579 L39.768,20.745 C39.768,22.277 39.172,23.717 38.089,24.800 L20.117,42.771 C19.650,43.239 19.027,43.497 18.363,43.497 C17.700,43.497 17.076,43.239 16.608,42.771 L1.654,27.817 C1.186,27.349 0.927,26.725 0.927,26.063 C0.927,25.400 1.186,24.777 1.654,24.308 L19.625,6.337 C20.709,5.254 22.149,4.657 23.681,4.657 L34.847,4.657 C36.554,4.657 38.153,5.558 39.046,7.016 C40.377,6.083 41.359,5.309 41.648,5.020 C41.952,4.716 42.120,4.313 42.122,3.885 C42.124,3.460 41.961,3.062 41.662,2.763 C41.365,2.467 40.969,2.303 40.547,2.303 C40.112,2.305 39.709,2.474 39.405,2.778 C39.253,2.930 38.923,3.308 38.524,3.789 C38.378,3.965 38.173,4.073 37.945,4.094 C37.719,4.115 37.496,4.047 37.321,3.901 C37.145,3.755 37.037,3.550 37.016,3.323 C36.995,3.095 37.063,2.873 37.209,2.698 C37.466,2.388 37.936,1.830 38.197,1.569 C38.822,0.944 39.652,0.598 40.533,0.594 C40.537,0.594 40.541,0.594 40.545,0.594 C41.425,0.594 42.251,0.935 42.870,1.555 C43.494,2.178 43.835,3.008 43.831,3.892 C43.828,4.774 43.481,5.604 42.856,6.229 ZM38.059,9.740 C37.247,10.265 36.423,10.771 35.608,11.247 C35.874,12.359 35.543,13.541 34.736,14.349 C34.115,14.970 33.288,15.312 32.407,15.312 C31.526,15.312 30.698,14.970 30.077,14.349 C29.456,13.727 29.113,12.900 29.113,12.019 C29.113,11.138 29.456,10.311 30.077,9.689 C31.362,8.405 33.452,8.404 34.736,9.689 C34.755,9.708 34.774,9.727 34.792,9.746 C35.737,9.193 36.692,8.599 37.632,7.978 C37.057,6.982 35.998,6.366 34.847,6.366 L23.681,6.366 C22.605,6.366 21.594,6.785 20.834,7.545 L2.863,25.516 C2.717,25.662 2.636,25.857 2.636,26.063 C2.636,26.269 2.717,26.463 2.863,26.609 L17.817,41.563 C17.962,41.708 18.156,41.788 18.363,41.788 C18.570,41.788 18.764,41.708 18.909,41.563 L36.880,23.591 C37.641,22.831 38.060,21.820 38.060,20.745 L38.059,9.740 ZM31.596,11.751 C31.667,11.534 31.819,11.358 32.023,11.256 C32.409,11.061 32.803,10.856 33.195,10.645 C32.955,10.506 32.685,10.434 32.407,10.434 C31.983,10.434 31.585,10.599 31.286,10.898 C30.667,11.516 30.667,12.522 31.286,13.140 C31.904,13.758 32.910,13.758 33.528,13.140 C33.794,12.874 33.953,12.530 33.985,12.159 C33.578,12.379 33.177,12.588 32.791,12.782 C32.671,12.843 32.542,12.873 32.408,12.873 C32.082,12.873 31.790,12.693 31.644,12.403 C31.541,12.199 31.524,11.967 31.596,11.751 ZM25.144,28.326 C24.263,28.326 23.436,27.984 22.814,27.363 C21.530,26.079 21.530,23.988 22.814,22.704 C23.436,22.082 24.263,21.740 25.144,21.740 C26.025,21.740 26.852,22.082 27.474,22.704 C28.758,23.988 28.758,26.079 27.474,27.363 C26.853,27.984 26.025,28.326 25.144,28.326 ZM26.265,23.912 C25.966,23.613 25.568,23.448 25.144,23.448 C24.720,23.448 24.322,23.613 24.023,23.912 C23.405,24.530 23.405,25.536 24.023,26.154 C24.641,26.773 25.647,26.773 26.265,26.154 C26.884,25.536 26.884,24.530 26.265,23.912 ZM19.393,33.940 C18.921,33.940 18.538,33.557 18.538,33.085 L18.538,16.981 C18.538,16.510 18.921,16.126 19.393,16.126 C19.864,16.126 20.247,16.510 20.247,16.981 L20.247,33.085 C20.247,33.557 19.864,33.940 19.393,33.940 ZM13.641,28.326 C13.641,28.326 13.641,28.326 13.641,28.326 C12.760,28.326 11.932,27.984 11.311,27.363 C10.026,26.079 10.026,23.988 11.311,22.704 C11.932,22.082 12.760,21.740 13.641,21.740 C14.522,21.740 15.349,22.082 15.970,22.704 C16.593,23.326 16.936,24.154 16.936,25.033 C16.936,25.914 16.593,26.741 15.971,27.363 C15.349,27.984 14.522,28.326 13.641,28.326 ZM14.762,23.912 C14.463,23.613 14.065,23.448 13.641,23.448 C13.217,23.448 12.819,23.613 12.520,23.912 C11.901,24.530 11.901,25.536 12.520,26.154 C13.138,26.773 14.144,26.773 14.762,26.154 C15.062,25.855 15.227,25.457 15.227,25.033 C15.227,24.610 15.062,24.211 14.762,23.912 Z"/>
</svg>