<svg
 xmlns="http://www.w3.org/2000/svg"
 xmlns:xlink="http://www.w3.org/1999/xlink"
 width="46px" height="43px">
<path fill-rule="evenodd"  fill="rgb(91, 108, 127)"
 d="M27.736,38.362 C20.238,38.362 14.137,32.262 14.137,24.764 C14.137,17.266 20.238,11.166 27.736,11.166 C35.234,11.166 41.334,17.266 41.334,24.764 C41.334,32.262 35.234,38.362 27.736,38.362 ZM27.736,12.919 C21.204,12.919 15.891,18.232 15.891,24.764 C15.891,31.295 21.204,36.609 27.736,36.609 C34.267,36.609 39.581,31.295 39.581,24.764 C39.581,18.232 34.267,12.919 27.736,12.919 ZM34.393,19.346 L30.179,23.561 C30.358,23.924 30.460,24.332 30.460,24.764 C30.460,26.266 29.238,27.488 27.736,27.488 C26.234,27.488 25.012,26.266 25.012,24.764 C25.012,24.332 25.113,23.924 25.293,23.561 L23.350,21.617 C23.007,21.275 23.007,20.720 23.350,20.378 C23.692,20.036 24.247,20.036 24.590,20.378 L26.533,22.321 C26.896,22.141 27.304,22.040 27.736,22.040 C28.168,22.040 28.576,22.141 28.939,22.321 L33.281,17.979 C33.623,17.637 34.178,17.637 34.520,17.979 C34.863,18.322 34.863,18.877 34.520,19.219 L34.393,19.346 ZM27.736,23.793 C27.201,23.793 26.765,24.229 26.765,24.764 C26.765,25.299 27.201,25.735 27.736,25.735 C28.271,25.735 28.707,25.299 28.707,24.764 C28.707,24.229 28.271,23.793 27.736,23.793 ZM42.599,34.395 C42.335,34.801 41.792,34.917 41.386,34.653 C40.980,34.389 40.865,33.846 41.128,33.440 C45.199,27.171 44.311,18.777 39.017,13.483 C32.796,7.262 22.675,7.262 16.455,13.483 C10.234,19.703 10.234,29.825 16.455,36.045 C21.756,41.347 30.157,42.230 36.429,38.145 C36.835,37.881 37.378,37.996 37.642,38.401 C37.907,38.807 37.792,39.350 37.386,39.615 C34.521,41.481 31.143,42.470 27.723,42.470 C27.144,42.470 26.565,42.442 25.985,42.385 C21.928,41.984 18.103,40.173 15.215,37.285 C13.387,35.456 12.043,33.324 11.183,31.049 L4.944,31.049 C4.460,31.049 4.068,30.657 4.068,30.173 C4.068,29.689 4.460,29.296 4.944,29.296 L10.623,29.296 C10.332,28.190 10.150,27.062 10.076,25.927 L6.172,25.927 C5.688,25.927 5.295,25.535 5.295,25.051 C5.295,24.566 5.688,24.174 6.172,24.174 L10.048,24.174 C10.085,23.042 10.230,21.914 10.483,20.804 L1.438,20.804 C0.954,20.804 0.561,20.412 0.561,19.928 C0.561,19.444 0.954,19.051 1.438,19.051 L10.978,19.051 C11.373,17.888 11.891,16.758 12.534,15.682 L7.414,15.682 C6.929,15.682 6.537,15.290 6.537,14.806 C6.537,14.321 6.929,13.929 7.414,13.929 L13.660,13.929 C13.683,13.929 13.705,13.931 13.727,13.932 C14.181,13.345 14.677,12.781 15.215,12.243 C17.674,9.784 20.682,8.202 23.847,7.495 L23.847,6.199 C22.550,5.876 21.586,4.702 21.586,3.307 C21.586,1.664 22.923,0.326 24.567,0.326 L30.878,0.326 C32.522,0.326 33.859,1.664 33.859,3.307 C33.859,4.702 32.895,5.876 31.598,6.199 L31.598,7.488 C34.773,8.193 37.791,9.777 40.257,12.243 C43.142,15.128 44.953,18.950 45.356,23.003 C45.753,26.999 44.774,31.045 42.599,34.395 ZM25.601,7.193 C27.010,7.024 28.435,7.023 29.844,7.190 L29.844,6.287 L25.601,6.287 L25.601,7.193 ZM32.105,3.307 C32.105,2.630 31.555,2.079 30.878,2.079 L24.567,2.079 C23.890,2.079 23.340,2.630 23.340,3.307 C23.340,3.984 23.890,4.534 24.567,4.534 L24.724,4.534 L30.721,4.534 L30.878,4.534 C31.555,4.534 32.105,3.984 32.105,3.307 Z"/>
</svg>