<svg
 xmlns="http://www.w3.org/2000/svg"
 xmlns:xlink="http://www.w3.org/1999/xlink"
 width="41px" height="39px">
<path fill-rule="evenodd"  fill="rgb(91, 108, 127)"
 d="M40.223,38.121 L36.814,38.121 C36.436,38.121 36.132,37.816 36.132,37.439 L36.132,22.174 L4.763,22.174 L4.763,37.439 C4.763,37.816 4.457,38.121 4.081,38.121 L0.671,38.121 C0.295,38.121 -0.011,37.816 -0.011,37.439 L-0.011,11.945 C-0.011,11.697 0.124,11.468 0.342,11.349 L20.118,0.438 C20.329,0.321 20.584,0.325 20.792,0.446 L40.568,12.040 C40.777,12.162 40.905,12.385 40.905,12.627 L40.905,37.439 C40.905,37.816 40.600,38.121 40.223,38.121 ZM4.763,20.811 L36.132,20.811 L36.132,19.447 L4.763,19.447 L4.763,20.811 ZM4.763,18.083 L36.132,18.083 L36.132,16.719 L4.763,16.719 L4.763,18.083 ZM39.541,13.018 L20.437,1.819 L1.353,12.348 L1.353,36.758 L3.399,36.758 L3.399,16.037 C3.399,15.661 3.704,15.355 4.081,15.355 L36.814,15.355 C37.191,15.355 37.496,15.661 37.496,16.037 L37.496,36.758 L39.541,36.758 L39.541,13.018 ZM23.857,13.991 L17.038,13.991 C16.661,13.991 16.356,13.686 16.356,13.309 L16.356,10.581 C16.356,10.205 16.661,9.900 17.038,9.900 L23.857,9.900 C24.234,9.900 24.539,10.205 24.539,10.581 L24.539,13.309 C24.539,13.686 24.234,13.991 23.857,13.991 ZM23.175,11.263 L17.719,11.263 L17.719,12.627 L23.175,12.627 L23.175,11.263 ZM17.719,30.148 L25.221,30.148 L25.221,24.220 C25.221,23.843 25.526,23.538 25.903,23.538 L34.086,23.538 C34.463,23.538 34.768,23.843 34.768,24.220 L34.768,30.830 L34.768,37.439 C34.768,37.816 34.463,38.121 34.086,38.121 L25.903,38.121 L17.719,38.121 C17.343,38.121 17.038,37.816 17.038,37.439 L17.038,30.830 C17.038,30.453 17.343,30.148 17.719,30.148 ZM30.676,24.902 L29.312,24.902 L29.312,26.266 L30.676,26.266 L30.676,24.902 ZM26.585,36.758 L33.404,36.758 L33.404,31.512 L32.040,31.512 L32.040,33.557 C32.040,33.935 31.735,34.239 31.358,34.239 L28.630,34.239 C28.253,34.239 27.948,33.935 27.948,33.557 L27.948,31.512 L26.585,31.512 L26.585,36.758 ZM30.676,32.876 L30.676,31.512 L29.312,31.512 L29.312,32.876 L30.676,32.876 ZM26.585,30.148 L33.404,30.148 L33.404,24.902 L32.040,24.902 L32.040,26.948 C32.040,27.325 31.735,27.630 31.358,27.630 L28.630,27.630 C28.253,27.630 27.948,27.325 27.948,26.948 L27.948,24.902 L26.585,24.902 L26.585,30.148 ZM22.493,31.512 L21.129,31.512 L21.129,32.876 L22.493,32.876 L22.493,31.512 ZM18.401,36.758 L25.221,36.758 L25.221,31.512 L23.857,31.512 L23.857,33.557 C23.857,33.935 23.552,34.239 23.175,34.239 L20.447,34.239 C20.071,34.239 19.765,33.935 19.765,33.557 L19.765,31.512 L18.401,31.512 L18.401,36.758 Z"/>
</svg>