<svg
 xmlns="http://www.w3.org/2000/svg"
 xmlns:xlink="http://www.w3.org/1999/xlink"
 width="43px" height="41px">
<path fill-rule="evenodd"  fill="rgb(91, 108, 127)"
 d="M39.434,40.550 L3.598,40.550 C1.696,40.548 0.155,39.007 0.153,37.104 L0.153,35.726 C0.155,33.824 1.696,32.283 3.598,32.280 L25.651,32.280 L25.651,26.767 C25.651,26.387 25.960,26.078 26.340,26.078 L29.786,26.078 L29.786,20.565 C29.786,20.185 30.095,19.876 30.475,19.876 L36.677,19.876 C37.058,19.876 37.366,20.185 37.366,20.565 L37.366,26.078 L38.745,26.078 C39.125,26.078 39.434,26.387 39.434,26.767 L39.434,32.280 C41.336,32.283 42.877,33.824 42.880,35.726 L42.880,37.104 C42.877,39.007 41.336,40.548 39.434,40.550 ZM27.029,27.456 L27.029,32.280 L31.853,32.280 L31.853,27.456 L27.029,27.456 ZM35.988,21.254 L31.164,21.254 L31.164,26.078 L35.988,26.078 L35.988,21.254 ZM38.056,27.456 L33.232,27.456 L33.232,32.280 L38.056,32.280 L38.056,27.456 ZM41.501,35.726 C41.501,34.585 40.576,33.659 39.434,33.659 L3.598,33.659 C2.457,33.659 1.531,34.585 1.531,35.726 L1.531,37.104 C1.531,38.246 2.457,39.172 3.598,39.172 L39.434,39.172 C40.576,39.172 41.501,38.246 41.501,37.104 L41.501,35.726 ZM35.299,38.483 C34.157,38.483 33.232,37.557 33.232,36.415 C33.232,35.273 34.157,34.348 35.299,34.348 C36.441,34.348 37.366,35.273 37.366,36.415 C37.366,37.557 36.441,38.483 35.299,38.483 ZM35.299,35.726 C34.918,35.726 34.610,36.035 34.610,36.415 C34.610,36.796 34.918,37.104 35.299,37.104 C35.680,37.104 35.988,36.796 35.988,36.415 C35.988,36.035 35.680,35.726 35.299,35.726 ZM28.408,38.483 C27.266,38.483 26.340,37.557 26.340,36.415 C26.340,35.273 27.266,34.348 28.408,34.348 C29.549,34.348 30.475,35.273 30.475,36.415 C30.475,37.557 29.549,38.483 28.408,38.483 ZM28.408,35.726 C28.027,35.726 27.719,36.035 27.719,36.415 C27.719,36.796 28.027,37.104 28.408,37.104 C28.788,37.104 29.097,36.796 29.097,36.415 C29.097,36.035 28.788,35.726 28.408,35.726 ZM21.516,38.483 C20.375,38.483 19.449,37.557 19.449,36.415 C19.449,35.273 20.375,34.348 21.516,34.348 C22.658,34.348 23.584,35.273 23.584,36.415 C23.584,37.557 22.658,38.483 21.516,38.483 ZM21.516,35.726 C21.136,35.726 20.827,36.035 20.827,36.415 C20.827,36.796 21.136,37.104 21.516,37.104 C21.897,37.104 22.205,36.796 22.205,36.415 C22.205,36.035 21.897,35.726 21.516,35.726 ZM14.625,38.483 C13.483,38.483 12.557,37.557 12.557,36.415 C12.557,35.273 13.483,34.348 14.625,34.348 C15.767,34.348 16.692,35.273 16.692,36.415 C16.692,37.557 15.767,38.483 14.625,38.483 ZM14.625,35.726 C14.244,35.726 13.936,36.035 13.936,36.415 C13.936,36.796 14.244,37.104 14.625,37.104 C15.005,37.104 15.314,36.796 15.314,36.415 C15.314,36.035 15.005,35.726 14.625,35.726 ZM7.733,38.483 C6.592,38.483 5.666,37.557 5.666,36.415 C5.666,35.273 6.592,34.348 7.733,34.348 C8.875,34.348 9.801,35.273 9.801,36.415 C9.801,37.557 8.875,38.483 7.733,38.483 ZM7.733,35.726 C7.353,35.726 7.044,36.035 7.044,36.415 C7.044,36.796 7.353,37.104 7.733,37.104 C8.114,37.104 8.423,36.796 8.423,36.415 C8.423,36.035 8.114,35.726 7.733,35.726 ZM28.408,17.808 L24.585,17.808 C24.358,18.624 24.033,19.408 23.614,20.143 L26.320,22.848 C26.450,22.977 26.522,23.153 26.522,23.336 C26.522,23.519 26.450,23.694 26.320,23.823 L23.396,26.747 C23.123,27.006 22.695,27.006 22.422,26.747 L19.716,24.041 C18.980,24.460 18.197,24.786 17.381,25.011 L17.381,28.834 C17.381,29.215 17.073,29.524 16.692,29.524 L12.557,29.524 C12.177,29.524 11.868,29.215 11.868,28.834 L11.868,25.011 C11.053,24.786 10.269,24.460 9.534,24.041 L6.828,26.747 C6.559,27.016 6.123,27.016 5.853,26.747 L2.930,23.823 C2.801,23.694 2.728,23.519 2.728,23.336 C2.728,23.153 2.801,22.977 2.930,22.848 L5.636,20.143 C5.217,19.408 4.891,18.624 4.665,17.808 L0.842,17.808 C0.461,17.808 0.153,17.500 0.153,17.119 L0.153,12.984 C0.153,12.604 0.461,12.295 0.842,12.295 L4.665,12.295 C4.891,11.480 5.217,10.696 5.636,9.960 L2.929,7.255 C2.800,7.126 2.727,6.951 2.727,6.768 C2.727,6.585 2.800,6.410 2.929,6.281 L5.853,3.356 C6.127,3.098 6.554,3.098 6.828,3.356 L9.534,6.063 C10.269,5.645 11.053,5.318 11.868,5.092 L11.868,1.269 C11.868,0.889 12.177,0.580 12.557,0.580 L16.692,0.580 C17.073,0.580 17.381,0.889 17.381,1.269 L17.381,5.092 C18.197,5.318 18.980,5.645 19.716,6.063 L22.422,3.356 C22.691,3.087 23.127,3.087 23.396,3.356 L26.320,6.281 C26.449,6.410 26.522,6.585 26.522,6.768 C26.522,6.951 26.449,7.126 26.320,7.255 L23.614,9.960 C24.033,10.696 24.358,11.480 24.585,12.295 L28.408,12.295 C28.788,12.295 29.097,12.604 29.097,12.984 L29.097,17.119 C29.097,17.500 28.788,17.808 28.408,17.808 ZM27.719,13.674 L24.045,13.674 C23.721,13.674 23.441,13.449 23.371,13.132 C23.146,12.100 22.737,11.117 22.165,10.228 C21.990,9.955 22.028,9.597 22.258,9.368 L24.858,6.768 L22.909,4.818 L20.309,7.419 C20.080,7.648 19.722,7.687 19.449,7.512 C18.560,6.940 17.577,6.531 16.545,6.305 C16.229,6.235 16.003,5.955 16.003,5.631 L16.003,1.958 L13.247,1.958 L13.247,5.631 C13.247,5.955 13.021,6.235 12.705,6.305 C11.673,6.531 10.689,6.940 9.801,7.512 C9.528,7.687 9.170,7.648 8.941,7.419 L6.341,4.818 L4.391,6.768 L6.992,9.368 C7.221,9.597 7.260,9.955 7.085,10.228 C6.513,11.116 6.104,12.100 5.878,13.132 C5.808,13.448 5.528,13.674 5.204,13.674 L1.531,13.674 L1.531,16.430 L5.204,16.430 C5.528,16.430 5.808,16.655 5.878,16.971 C6.104,18.003 6.513,18.987 7.085,19.876 C7.260,20.149 7.221,20.507 6.992,20.736 L4.392,23.336 L6.341,25.286 L8.941,22.685 C9.170,22.455 9.528,22.417 9.801,22.591 C10.689,23.164 11.672,23.573 12.704,23.799 C13.021,23.868 13.247,24.148 13.247,24.472 L13.247,28.146 L16.003,28.146 L16.003,24.472 C16.003,24.148 16.229,23.868 16.546,23.799 C17.578,23.573 18.561,23.164 19.449,22.591 C19.722,22.417 20.080,22.455 20.309,22.685 L22.909,25.286 L24.859,23.336 L22.258,20.735 C22.029,20.506 21.990,20.148 22.165,19.876 C22.737,18.988 23.146,18.004 23.371,16.972 C23.441,16.656 23.721,16.431 24.045,16.431 L27.719,16.431 L27.719,13.674 ZM14.625,22.632 C10.440,22.627 7.049,19.236 7.044,15.052 C7.044,10.865 10.438,7.471 14.625,7.471 C18.811,7.471 22.205,10.865 22.205,15.052 C22.205,19.238 18.811,22.632 14.625,22.632 ZM14.625,8.849 C11.201,8.853 8.426,11.628 8.423,15.052 C8.423,18.477 11.199,21.254 14.625,21.254 C18.050,21.254 20.827,18.477 20.827,15.052 C20.827,11.626 18.050,8.849 14.625,8.849 ZM14.625,20.565 C11.582,20.562 9.115,18.095 9.112,15.052 C9.112,12.007 11.580,9.538 14.625,9.538 C17.670,9.538 20.138,12.007 20.138,15.052 C20.138,18.097 17.670,20.565 14.625,20.565 ZM14.625,10.917 C12.342,10.919 10.492,12.769 10.490,15.052 C10.490,17.335 12.341,19.187 14.625,19.187 C16.908,19.187 18.760,17.335 18.760,15.052 C18.760,12.768 16.908,10.917 14.625,10.917 Z"/>
</svg>