<svg
 xmlns="http://www.w3.org/2000/svg"
 xmlns:xlink="http://www.w3.org/1999/xlink"
 width="48px" height="37px">
<path fill-rule="evenodd"  fill="rgb(91, 108, 127)"
 d="M44.042,37.000 L40.875,37.000 L10.792,37.000 C8.609,37.000 6.833,35.224 6.833,33.042 L6.833,6.333 L1.292,6.333 C0.854,6.333 0.500,5.979 0.500,5.542 L0.500,3.958 C0.500,1.775 2.276,0.000 4.458,0.000 L37.708,0.000 C39.891,0.000 41.667,1.775 41.667,3.958 L41.667,30.667 L47.208,30.667 C47.645,30.667 48.000,31.020 48.000,31.458 L48.000,33.042 C48.000,35.224 46.224,37.000 44.042,37.000 ZM6.833,3.958 C6.833,2.649 5.768,1.583 4.458,1.583 C3.149,1.583 2.083,2.649 2.083,3.958 L2.083,4.750 L6.833,4.750 L6.833,3.958 ZM40.083,3.958 C40.083,2.649 39.018,1.583 37.708,1.583 L7.623,1.583 C7.646,1.614 7.662,1.649 7.684,1.680 C7.731,1.746 7.772,1.815 7.814,1.884 C7.897,2.017 7.972,2.153 8.038,2.296 C8.075,2.374 8.109,2.451 8.140,2.531 C8.199,2.683 8.246,2.840 8.286,3.000 C8.305,3.075 8.328,3.148 8.343,3.225 C8.387,3.460 8.415,3.700 8.416,3.948 C8.416,3.951 8.417,3.955 8.417,3.958 L8.417,5.542 C8.417,5.542 8.417,5.542 8.417,5.543 L8.417,33.042 C8.417,34.351 9.482,35.417 10.792,35.417 L10.792,35.417 C12.101,35.417 13.167,34.351 13.167,33.042 L13.167,31.458 C13.167,31.020 13.520,30.667 13.958,30.667 L40.083,30.667 L40.083,3.958 ZM46.417,32.250 L14.750,32.250 L14.750,33.042 C14.750,33.932 14.455,34.755 13.957,35.417 L40.875,35.417 L44.042,35.417 C45.351,35.417 46.417,34.351 46.417,33.042 L46.417,32.250 ZM11.750,19.167 L25.042,19.167 L25.042,20.750 L11.750,20.750 L11.750,19.167 ZM32.333,14.125 C34.953,14.125 37.083,16.255 37.083,18.875 C37.083,20.274 36.465,21.520 35.500,22.390 L35.500,26.792 C35.500,27.084 35.339,27.352 35.081,27.490 C34.825,27.628 34.511,27.612 34.269,27.450 L32.333,26.160 L30.398,27.450 C30.265,27.538 30.112,27.583 29.958,27.583 C29.830,27.583 29.702,27.552 29.585,27.490 C29.327,27.352 29.167,27.084 29.167,26.792 L29.167,22.390 C28.202,21.520 27.583,20.274 27.583,18.875 C27.583,16.255 29.714,14.125 32.333,14.125 ZM30.750,25.313 L31.895,24.550 C32.161,24.371 32.507,24.371 32.773,24.550 L33.917,25.313 L33.917,23.333 C33.419,23.511 32.891,23.625 32.333,23.625 C31.775,23.625 31.248,23.511 30.750,23.333 L30.750,25.313 ZM32.333,22.042 C34.080,22.042 35.500,20.621 35.500,18.875 C35.500,17.129 34.080,15.708 32.333,15.708 C30.587,15.708 29.167,17.129 29.167,18.875 C29.167,20.621 30.587,22.042 32.333,22.042 ZM17.250,15.750 L17.250,14.167 L24.917,14.167 L24.917,15.750 L17.250,15.750 ZM11.583,9.417 L36.917,9.417 L36.917,11.000 L11.583,11.000 L11.583,9.417 ZM19.500,4.667 L29.792,4.667 L29.792,6.250 L19.500,6.250 L19.500,4.667 ZM14.833,15.750 L11.583,15.750 L11.583,14.167 L14.833,14.167 L14.833,15.750 Z"/>
</svg>