<svg
 xmlns="http://www.w3.org/2000/svg"
 xmlns:xlink="http://www.w3.org/1999/xlink"
 width="55px" height="34px">
<path fill-rule="evenodd"  fill="rgb(255, 255, 255)"
 d="M53.615,28.796 L51.100,28.796 C51.101,28.813 51.102,28.830 51.102,28.847 C51.102,31.534 48.916,33.720 46.229,33.720 C43.542,33.720 41.356,31.534 41.356,28.847 C41.356,28.830 41.357,28.813 41.358,28.796 L24.952,28.796 C24.952,28.813 24.953,28.830 24.953,28.847 C24.953,31.534 22.767,33.720 20.080,33.720 C17.393,33.720 15.207,31.534 15.207,28.847 C15.207,28.830 15.209,28.813 15.209,28.796 L11.053,28.796 C10.176,28.796 9.463,28.083 9.463,27.206 L9.463,25.513 L5.060,25.513 C4.635,25.513 4.291,25.169 4.291,24.744 C4.291,24.319 4.635,23.975 5.060,23.975 L14.336,23.975 C14.760,23.975 15.105,24.319 15.105,24.744 C15.105,25.169 14.760,25.513 14.336,25.513 L11.002,25.513 L11.002,27.206 C11.002,27.234 11.024,27.257 11.053,27.257 L15.475,27.257 C16.136,25.349 17.950,23.975 20.080,23.975 C22.210,23.975 24.024,25.349 24.685,27.257 L39.715,27.257 L39.715,21.462 C39.715,21.036 40.059,20.692 40.484,20.692 C40.909,20.692 41.254,21.037 41.254,21.462 L41.254,27.257 L41.624,27.257 C42.285,25.349 44.099,23.975 46.229,23.975 C48.359,23.975 50.173,25.349 50.834,27.257 L52.846,27.257 L52.846,23.872 L51.974,23.872 C50.644,23.872 49.563,22.791 49.563,21.462 L49.563,19.820 C49.563,19.395 49.908,19.051 50.332,19.051 L52.725,19.051 C52.399,18.041 51.451,17.307 50.334,17.307 C50.333,17.307 50.333,17.307 50.332,17.307 C50.331,17.307 50.331,17.307 50.330,17.307 L41.254,17.307 L41.254,18.179 C41.254,18.604 40.909,18.948 40.484,18.948 C40.059,18.948 39.715,18.604 39.715,18.179 L39.715,2.065 C39.715,2.037 39.692,2.014 39.664,2.014 L11.053,2.014 C11.024,2.014 11.002,2.037 11.002,2.065 L11.002,13.674 C11.002,14.098 10.657,14.443 10.232,14.443 C9.807,14.443 9.463,14.098 9.463,13.674 L9.463,2.065 C9.463,1.188 10.176,0.475 11.053,0.475 L39.664,0.475 C40.541,0.475 41.254,1.188 41.254,2.065 L41.254,3.758 L47.050,3.758 C48.832,3.758 50.281,5.207 50.281,6.989 L50.281,7.810 C50.281,8.179 50.020,8.488 49.672,8.562 L50.945,15.814 C52.890,16.110 54.385,17.794 54.385,19.820 L54.385,28.027 C54.385,28.452 54.040,28.796 53.615,28.796 ZM20.080,25.514 C18.242,25.514 16.746,27.009 16.746,28.848 C16.746,30.686 18.242,32.181 20.080,32.181 C21.919,32.181 23.414,30.686 23.414,28.848 C23.414,27.009 21.919,25.514 20.080,25.514 ZM46.229,25.514 C44.391,25.514 42.895,27.009 42.895,28.848 C42.895,30.686 44.391,32.181 46.229,32.181 C48.068,32.181 49.563,30.686 49.563,28.848 C49.563,27.009 48.068,25.514 46.229,25.514 ZM48.743,6.989 C48.743,6.056 47.983,5.296 47.050,5.296 L41.254,5.296 L41.254,7.040 L48.743,7.040 L48.743,6.989 ZM48.090,8.579 L41.254,8.579 L41.254,15.768 L49.347,15.768 L48.090,8.579 ZM52.846,20.589 L51.102,20.589 L51.102,21.462 C51.102,21.942 51.493,22.333 51.974,22.333 L52.846,22.333 L52.846,20.589 ZM46.229,30.438 C45.352,30.438 44.639,29.724 44.639,28.848 C44.639,27.971 45.352,27.257 46.229,27.257 C47.106,27.257 47.819,27.971 47.819,28.848 C47.819,29.724 47.106,30.438 46.229,30.438 ZM20.080,30.438 C19.203,30.438 18.490,29.724 18.490,28.848 C18.490,27.971 19.203,27.257 20.080,27.257 C20.957,27.257 21.670,27.971 21.670,28.848 C21.670,29.724 20.957,30.438 20.080,30.438 ZM18.439,20.692 C18.864,20.692 19.208,21.037 19.208,21.462 C19.208,21.887 18.864,22.231 18.439,22.231 L8.591,22.231 C8.166,22.231 7.821,21.887 7.821,21.462 C7.821,21.037 8.166,20.692 8.591,20.692 L18.439,20.692 ZM13.160,17.986 C13.160,18.411 12.815,18.756 12.390,18.756 L1.477,18.756 C1.052,18.756 0.707,18.411 0.707,17.986 C0.707,17.561 1.052,17.217 1.477,17.217 L12.390,17.217 C12.815,17.217 13.160,17.561 13.160,17.986 Z"/>
</svg>