<svg
 xmlns="http://www.w3.org/2000/svg"
 xmlns:xlink="http://www.w3.org/1999/xlink"
 width="41px" height="41px">
<path fill-rule="evenodd"  fill="rgb(255, 255, 255)"
 d="M16.666,4.958 C16.521,4.813 16.438,4.612 16.438,4.406 C16.438,4.200 16.521,3.999 16.666,3.854 C16.812,3.709 17.013,3.625 17.219,3.625 C17.425,3.625 17.626,3.709 17.771,3.854 C17.917,3.999 18.001,4.201 18.001,4.406 C18.001,4.612 17.917,4.813 17.771,4.958 C17.626,5.104 17.425,5.187 17.219,5.187 C17.013,5.187 16.812,5.104 16.666,4.958 ZM19.879,18.630 C19.733,18.485 19.650,18.283 19.650,18.078 C19.650,17.873 19.734,17.671 19.879,17.526 C20.024,17.380 20.226,17.297 20.431,17.297 C20.637,17.297 20.838,17.380 20.983,17.526 C21.129,17.671 21.213,17.873 21.213,18.078 C21.213,18.283 21.129,18.485 20.983,18.630 C20.838,18.776 20.637,18.859 20.431,18.859 C20.226,18.859 20.024,18.776 19.879,18.630 ZM22.922,17.297 L25.146,17.297 C25.578,17.297 25.928,17.647 25.928,18.078 C25.928,18.510 25.578,18.859 25.146,18.859 L22.922,18.859 C22.490,18.859 22.141,18.510 22.141,18.078 C22.141,17.647 22.490,17.297 22.922,17.297 ZM39.719,5.187 L35.398,5.187 L35.398,5.187 L35.398,9.172 C35.398,9.425 35.349,9.666 35.262,9.889 L40.266,14.805 C40.531,15.065 40.576,15.477 40.373,15.789 L38.011,19.414 L38.011,24.491 C38.011,24.922 37.661,25.272 37.229,25.272 L29.729,25.272 C29.298,25.272 28.948,24.922 28.948,24.491 L28.948,22.063 L23.443,22.063 C23.011,22.063 22.661,21.713 22.661,21.281 C22.661,20.850 23.011,20.500 23.443,20.500 L28.948,20.500 L28.948,19.418 L26.583,15.789 C26.381,15.479 26.423,15.070 26.685,14.809 L31.615,9.890 C31.528,9.667 31.479,9.425 31.479,9.172 L31.479,5.187 L20.431,5.187 C20.000,5.187 19.650,4.838 19.650,4.406 C19.650,3.975 20.000,3.625 20.431,3.625 L31.479,3.625 L31.479,3.451 C31.479,3.020 31.828,2.670 32.260,2.670 C32.691,2.670 33.041,3.020 33.041,3.451 L33.041,3.625 L33.836,3.625 L33.836,3.451 C33.836,3.020 34.185,2.670 34.617,2.670 C35.048,2.670 35.398,3.020 35.398,3.451 L35.398,3.625 L38.938,3.625 L38.938,2.063 L2.063,2.063 L2.063,3.625 L7.821,3.625 L7.821,3.391 C7.821,2.959 8.171,2.609 8.603,2.609 C9.034,2.609 9.384,2.959 9.384,3.391 L9.384,3.625 L13.055,3.625 C13.486,3.625 13.836,3.975 13.836,4.406 C13.836,4.838 13.486,5.187 13.055,5.187 L9.384,5.187 L9.384,11.360 L11.421,13.397 C11.567,13.543 11.650,13.742 11.650,13.949 L11.650,15.784 C11.650,15.925 11.612,16.057 11.546,16.171 C11.612,16.341 11.650,16.526 11.650,16.719 L11.650,20.812 L14.205,20.812 C14.486,20.812 14.745,20.963 14.884,21.207 C15.023,21.451 15.021,21.750 14.877,21.992 L13.134,24.933 L13.134,31.437 L15.969,31.437 L15.969,24.719 C15.969,24.287 16.318,23.938 16.750,23.938 L24.250,23.938 C24.681,23.938 25.031,24.287 25.031,24.719 L25.031,31.437 L35.969,31.437 C38.467,31.437 40.500,33.470 40.500,35.969 C40.500,38.467 38.467,40.500 35.969,40.500 L5.031,40.500 C2.533,40.500 0.500,38.467 0.500,35.969 C0.500,33.800 2.033,31.982 4.071,31.540 L4.071,24.933 L2.328,21.992 C2.185,21.750 2.182,21.451 2.321,21.207 C2.460,20.963 2.719,20.812 3.000,20.812 L5.556,20.812 L5.556,16.719 C5.556,16.526 5.593,16.341 5.659,16.171 C5.594,16.057 5.556,15.925 5.556,15.784 L5.556,13.949 C5.556,13.742 5.638,13.543 5.785,13.396 L7.821,11.359 L7.821,5.187 L1.281,5.187 C0.850,5.187 0.500,4.838 0.500,4.406 L0.500,1.281 C0.500,0.850 0.850,0.500 1.281,0.500 L39.719,0.500 C40.150,0.500 40.500,0.850 40.500,1.281 L40.500,4.406 C40.500,4.838 40.150,5.187 39.719,5.187 ZM30.511,23.709 L36.448,23.709 L36.448,19.247 C36.445,19.204 36.445,19.161 36.448,19.117 L36.448,17.772 L30.511,17.772 L30.511,23.709 ZM33.836,5.187 L33.041,5.187 L33.041,9.172 C33.041,9.391 33.219,9.569 33.438,9.569 C33.657,9.569 33.836,9.391 33.836,9.172 L33.836,5.187 ZM34.158,10.995 C33.935,11.083 33.692,11.132 33.439,11.132 C33.185,11.132 32.943,11.083 32.720,10.995 L28.238,15.467 L29.020,16.666 C29.143,16.397 29.414,16.210 29.729,16.210 L37.229,16.210 C37.544,16.210 37.814,16.396 37.938,16.663 L38.715,15.471 L34.158,10.995 ZM10.087,16.750 L7.118,16.750 L7.118,20.812 L10.087,20.812 L10.087,16.750 ZM35.969,38.938 C37.606,38.938 38.938,37.606 38.938,35.969 C38.938,34.332 37.606,33.000 35.969,33.000 C34.332,33.000 33.000,34.332 33.000,35.969 C33.000,37.606 34.332,38.938 35.969,38.938 ZM23.919,38.938 L32.550,38.938 C31.858,38.141 31.438,37.104 31.438,35.969 C31.438,34.834 31.858,33.796 32.550,33.000 L23.919,33.000 C24.611,33.796 25.031,34.834 25.031,35.969 C25.031,37.104 24.611,38.141 23.919,38.938 ZM20.500,38.938 C22.137,38.938 23.469,37.606 23.469,35.969 C23.469,34.332 22.137,33.000 20.500,33.000 C18.863,33.000 17.531,34.332 17.531,35.969 C17.531,37.606 18.863,38.938 20.500,38.938 ZM17.531,31.437 L23.469,31.437 L23.469,25.500 L17.531,25.500 L17.531,31.437 ZM8.450,38.938 L17.081,38.938 C16.389,38.141 15.969,37.104 15.969,35.969 C15.969,34.834 16.389,33.796 17.081,33.000 L16.750,33.000 L8.450,33.000 C9.142,33.796 9.562,34.834 9.562,35.969 C9.562,37.104 9.142,38.141 8.450,38.938 ZM11.572,31.437 L11.572,25.500 L5.634,25.500 L5.634,31.437 L11.572,31.437 ZM2.063,35.969 C2.063,37.606 3.394,38.938 5.031,38.938 C6.668,38.938 8.000,37.606 8.000,35.969 C8.000,34.332 6.668,33.000 5.031,33.000 C3.394,33.000 2.063,34.332 2.063,35.969 ZM4.371,22.375 L5.298,23.938 L11.908,23.938 L12.834,22.375 L4.371,22.375 ZM7.118,14.273 L7.118,15.187 L10.087,15.187 L10.087,14.273 L8.603,12.788 L7.118,14.273 Z"/>
</svg>