<svg
 xmlns="http://www.w3.org/2000/svg"
 xmlns:xlink="http://www.w3.org/1999/xlink"
 width="40px" height="37px">
<path fill-rule="evenodd"  fill="rgb(255, 255, 255)"
 d="M38.891,13.264 L32.636,19.525 L32.636,33.741 C32.636,35.168 31.475,36.329 30.048,36.329 L2.975,36.329 C1.548,36.329 0.387,35.168 0.387,33.741 L0.387,2.925 C0.387,1.498 1.548,0.337 2.975,0.337 L27.608,0.337 C28.299,0.337 28.949,0.606 29.438,1.095 L31.878,3.535 C32.366,4.024 32.636,4.674 32.636,5.365 L32.636,12.202 C32.938,11.899 34.921,9.915 35.231,9.604 C36.240,8.595 37.882,8.595 38.891,9.604 C39.903,10.616 39.903,12.253 38.891,13.264 ZM25.734,6.376 L25.734,2.063 L2.975,2.063 C2.499,2.063 2.112,2.449 2.112,2.925 L2.112,33.741 C2.112,34.217 2.499,34.604 2.975,34.604 L30.048,34.604 C30.523,34.604 30.910,34.217 30.910,33.741 L30.910,21.251 L30.806,21.355 C30.711,21.450 30.595,21.522 30.468,21.564 L26.808,22.784 C26.499,22.887 26.157,22.807 25.925,22.575 C25.694,22.345 25.614,22.003 25.717,21.693 L26.937,18.033 C26.980,17.906 27.051,17.790 27.146,17.696 L28.365,16.476 C28.365,16.476 30.910,13.929 30.910,13.929 L30.910,7.239 L26.597,7.239 C26.120,7.239 25.734,6.852 25.734,6.376 ZM30.196,19.526 L28.976,18.306 L28.510,18.772 L27.900,20.602 L29.730,19.992 L30.196,19.526 ZM30.658,4.755 L28.218,2.315 C27.937,2.034 27.623,2.063 27.460,2.063 L27.460,5.513 L30.910,5.513 C30.910,5.329 30.931,5.029 30.658,4.755 ZM34.342,12.935 C33.730,13.547 30.845,16.435 30.195,17.085 L31.415,18.305 L35.562,14.155 L34.342,12.935 ZM37.671,10.824 C37.335,10.488 36.788,10.488 36.451,10.824 L35.562,11.714 L36.782,12.934 L37.671,12.044 C38.009,11.706 38.008,11.160 37.671,10.824 ZM26.597,10.689 L4.700,10.689 C4.224,10.689 3.838,10.303 3.838,9.827 C3.838,9.350 4.224,8.964 4.700,8.964 L26.597,8.964 C27.073,8.964 27.460,9.350 27.460,9.827 C27.460,10.303 27.073,10.689 26.597,10.689 ZM4.700,12.415 L23.146,12.415 C23.623,12.415 24.009,12.801 24.009,13.277 C24.009,13.754 23.623,14.140 23.146,14.140 L4.700,14.140 C4.224,14.140 3.838,13.754 3.838,13.277 C3.838,12.801 4.224,12.415 4.700,12.415 ZM4.700,15.866 L23.146,15.866 C23.623,15.866 24.009,16.252 24.009,16.728 C24.009,17.204 23.623,17.591 23.146,17.591 L4.700,17.591 C4.224,17.591 3.838,17.204 3.838,16.728 C3.838,16.252 4.224,15.866 4.700,15.866 ZM4.700,19.316 L23.146,19.316 C23.623,19.316 24.009,19.703 24.009,20.179 C24.009,20.655 23.623,21.042 23.146,21.042 L4.700,21.042 C4.224,21.042 3.838,20.655 3.838,20.179 C3.838,19.703 4.224,19.316 4.700,19.316 ZM21.421,31.153 L26.597,31.153 C27.073,31.153 27.460,31.539 27.460,32.016 C27.460,32.492 27.073,32.879 26.597,32.879 L21.421,32.879 C20.944,32.879 20.558,32.492 20.558,32.016 C20.558,31.539 20.944,31.153 21.421,31.153 Z"/>
</svg>