<svg
 xmlns="http://www.w3.org/2000/svg"
 xmlns:xlink="http://www.w3.org/1999/xlink"
 width="36px" height="43px">
<path fill-rule="evenodd"  fill="rgb(255, 255, 255)"
 d="M35.088,42.277 L0.912,42.277 C0.464,42.277 0.100,41.914 0.100,41.465 L0.100,33.655 C0.100,29.183 5.193,25.692 9.540,25.527 L11.779,23.515 C9.107,21.543 7.486,18.375 7.486,15.007 L7.486,9.650 C7.486,4.714 11.453,0.723 16.385,0.723 L19.632,0.723 C24.570,0.723 28.588,4.728 28.588,9.650 L28.588,15.007 C28.588,18.380 26.945,21.555 24.237,23.530 L26.460,25.527 C30.817,25.692 35.899,29.192 35.899,33.655 L35.899,41.465 C35.899,41.914 35.536,42.277 35.088,42.277 ZM20.644,40.654 L19.793,36.921 L16.202,36.921 L15.327,40.654 L20.644,40.654 ZM15.528,33.357 L16.151,35.297 L19.863,35.297 L20.526,33.384 L18.000,32.121 L15.528,33.357 ZM20.816,25.177 C19.905,25.428 18.960,25.558 18.008,25.558 C17.047,25.558 16.096,25.425 15.180,25.171 L18.000,29.682 L20.816,25.177 ZM9.340,27.162 C5.788,27.425 1.724,30.312 1.724,33.655 L1.724,40.654 L13.659,40.654 L14.718,36.142 L14.059,34.092 L13.481,34.381 C13.282,34.480 13.052,34.494 12.844,34.420 C12.635,34.345 12.466,34.187 12.376,33.985 L9.340,27.162 ZM10.840,26.540 L13.514,32.550 L16.839,30.887 L12.942,24.653 L10.840,26.540 ZM26.965,9.650 C26.965,5.623 23.675,2.346 19.632,2.346 L16.385,2.346 C12.373,2.346 9.109,5.623 9.109,9.650 L9.109,10.252 L10.556,8.132 C10.692,7.931 10.913,7.803 11.155,7.781 C11.397,7.760 11.636,7.848 11.806,8.022 C13.457,9.710 15.368,10.462 18.000,10.462 C20.634,10.462 22.544,9.710 24.194,8.022 C24.363,7.849 24.600,7.761 24.842,7.781 C25.083,7.801 25.303,7.928 25.441,8.127 L26.965,10.321 L26.965,9.650 ZM26.965,15.007 L26.965,13.167 L24.642,9.824 C22.836,11.363 20.701,12.085 18.000,12.085 C15.303,12.085 13.169,11.364 11.363,9.828 L9.109,13.131 L9.109,15.007 C9.109,19.880 13.041,23.935 18.008,23.935 C22.992,23.935 26.965,19.868 26.965,15.007 ZM23.058,24.652 L19.162,30.887 L22.486,32.550 L25.160,26.540 L23.058,24.652 ZM34.276,33.655 C34.276,30.312 30.212,27.425 26.660,27.162 L23.624,33.985 C23.534,34.187 23.365,34.345 23.156,34.420 C22.949,34.494 22.719,34.481 22.519,34.381 L21.990,34.116 L21.284,36.155 L22.309,40.654 L34.276,40.654 L34.276,33.655 ZM25.305,36.921 L28.551,36.921 C29.000,36.921 29.363,37.284 29.363,37.732 C29.363,38.180 29.000,38.544 28.551,38.544 L25.305,38.544 C24.857,38.544 24.493,38.180 24.493,37.732 C24.493,37.284 24.857,36.921 25.305,36.921 ZM31.753,36.921 C32.201,36.921 32.565,37.284 32.565,37.732 C32.565,38.180 32.201,38.544 31.753,38.544 C31.305,38.544 30.941,38.180 30.941,37.732 C30.941,37.284 31.305,36.921 31.753,36.921 ZM15.831,20.910 C15.425,20.719 15.251,20.236 15.443,19.830 C15.633,19.425 16.117,19.251 16.523,19.442 C16.986,19.661 17.483,19.771 18.000,19.771 C18.506,19.771 18.994,19.665 19.450,19.455 C19.857,19.268 20.339,19.446 20.527,19.854 C20.714,20.261 20.535,20.743 20.128,20.930 C19.457,21.238 18.742,21.395 18.000,21.395 C17.242,21.395 16.512,21.232 15.831,20.910 ZM22.059,13.709 C22.506,13.709 22.870,14.072 22.870,14.520 C22.870,14.968 22.506,15.332 22.059,15.332 C21.609,15.332 21.247,14.968 21.247,14.520 C21.247,14.072 21.609,13.709 22.059,13.709 ZM13.942,15.332 C13.493,15.332 13.131,14.968 13.131,14.520 C13.131,14.072 13.493,13.709 13.942,13.709 C14.390,13.709 14.754,14.072 14.754,14.520 C14.754,14.968 14.390,15.332 13.942,15.332 Z"/>
</svg>