<svg
 xmlns="http://www.w3.org/2000/svg"
 xmlns:xlink="http://www.w3.org/1999/xlink"
 width="37px" height="37px">
<path fill-rule="evenodd"  fill="rgb(255, 255, 255)"
 d="M36.966,2.771 L36.966,36.249 C36.966,36.648 36.643,36.971 36.245,36.971 L5.950,36.971 C2.705,36.971 0.051,34.331 0.034,31.087 C0.034,31.079 0.034,31.072 0.034,31.065 C0.034,31.061 0.034,31.058 0.034,31.054 L0.034,5.946 C0.034,2.683 2.688,0.029 5.950,0.029 C6.349,0.029 6.672,0.352 6.672,0.751 L6.672,6.932 L15.830,6.932 C16.229,6.932 16.552,7.255 16.552,7.653 C16.552,8.052 16.229,8.375 15.830,8.375 L6.672,8.375 L6.672,25.861 L6.672,25.861 C6.671,26.253 6.357,26.574 5.965,26.582 C3.519,26.632 1.464,28.692 1.477,31.079 C1.490,33.532 3.497,35.528 5.950,35.528 L35.523,35.528 L35.523,27.024 L34.901,28.707 C34.797,28.991 34.527,29.179 34.225,29.179 C33.923,29.179 33.653,28.991 33.548,28.707 L31.528,23.240 C31.498,23.160 31.483,23.075 31.483,22.989 L31.483,8.375 L22.324,8.375 C21.926,8.375 21.602,8.052 21.602,7.653 C21.602,7.255 21.926,6.932 22.324,6.932 L31.483,6.932 L31.483,2.771 C31.483,1.259 32.713,0.029 34.225,0.029 C35.736,0.029 36.966,1.259 36.966,2.771 L36.966,2.771 ZM1.780,26.925 C2.731,25.976 3.936,25.376 5.229,25.195 L5.229,1.530 C3.104,1.876 1.477,3.724 1.477,5.946 L1.477,27.252 C1.574,27.141 1.674,27.031 1.780,26.925 ZM34.225,26.375 L35.209,23.711 L33.240,23.711 L34.225,26.375 ZM35.523,2.771 C35.523,2.055 34.941,1.472 34.225,1.472 C33.508,1.472 32.926,2.055 32.926,2.771 L32.926,3.952 L35.523,3.952 L35.523,2.771 ZM35.523,5.395 L32.926,5.395 L32.926,22.268 L35.523,22.268 L35.523,5.395 ZM15.325,29.311 L11.862,29.311 C11.464,29.311 11.141,28.988 11.141,28.589 L11.141,15.313 C11.141,14.915 11.464,14.592 11.862,14.592 L26.292,14.592 C26.691,14.592 27.014,14.915 27.014,15.313 L27.014,28.589 C27.014,28.988 26.691,29.311 26.292,29.311 L22.829,29.311 C22.431,29.311 22.108,28.988 22.108,28.589 L22.108,23.548 L16.047,23.548 L16.047,28.589 C16.047,28.988 15.724,29.311 15.325,29.311 ZM12.584,27.868 L14.604,27.868 L14.604,20.075 L12.584,20.075 L12.584,27.868 ZM23.551,27.868 L25.571,27.868 L25.571,20.075 L23.551,20.075 L23.551,27.868 ZM25.571,18.632 L25.571,16.035 L12.584,16.035 L12.584,18.632 L25.571,18.632 ZM22.108,22.105 L22.108,20.075 L16.047,20.075 L16.047,22.105 L22.108,22.105 ZM19.077,8.375 C18.888,8.375 18.701,8.298 18.567,8.163 C18.433,8.029 18.356,7.843 18.356,7.653 C18.356,7.463 18.433,7.277 18.567,7.143 C18.701,7.008 18.888,6.932 19.077,6.932 C19.267,6.932 19.453,7.008 19.587,7.143 C19.722,7.277 19.799,7.463 19.799,7.653 C19.799,7.843 19.722,8.029 19.587,8.163 C19.453,8.298 19.267,8.375 19.077,8.375 Z"/>
</svg>