<?xml version="1.0" encoding="utf-8"?><svg viewBox="0 0 34 35" xmlns="http://www.w3.org/2000/svg" xmlns:xlink="http://www.w3.org/1999/xlink"><style>:root>svg{display:none}:root>svg:target{display:block}</style><svg viewBox="0 0 24 20" id="ic_cart" xmlns="http://www.w3.org/2000/svg"><path fill-rule="evenodd" d="M23.111 5.567l-2.039 8.642a1.271 1.271 0 0 1-1.241.981H8.132a1.271 1.271 0 0 1-1.241-.982L4.236 3H1.5a1.5 1.5 0 1 1 0-3h3c.587 0 1.083.346 1.329.837.349.159.624.461.718.855l.548 2.307h14.776c.392 0 .756.177.999.484.244.308.331.702.241 1.084zm-15.408.982l1.438 6.092h9.682l1.437-6.092H7.703zm2.076 9.854a1.784 1.784 0 1 1 0 3.567 1.784 1.784 0 0 1 0-3.567zm8.491 0a1.784 1.784 0 1 1 0 3.567 1.784 1.784 0 0 1 0-3.567z"/></svg><svg viewBox="0 0 20 20" id="ic_email" xmlns="http://www.w3.org/2000/svg"><path fill-rule="evenodd" d="M19.44 8.062a3.9 3.9 0 0 0-1.811-1.812L5.63.816A3.904 3.904 0 0 0 .303 5.78l1.713 3.984-1.713 3.985a3.913 3.913 0 0 0 3.619 5.357 3.93 3.93 0 0 0 1.708-.39l11.998-5.438a3.904 3.904 0 0 0 1.812-5.216zM4.496 16.37a1.301 1.301 0 0 1-1.775-1.656l1.577-3.649h11.929L4.496 16.37zm-.198-7.907l-1.577-3.65a1.27 1.27 0 0 1 .322-1.431 1.26 1.26 0 0 1 1.453-.22l11.731 5.301H4.298z"/></svg><svg viewBox="0 0 13 9" id="ic_email2" xmlns="http://www.w3.org/2000/svg"><path fill-rule="evenodd" d="M12.439 8.287L9.153 4.998l3.369-3.369c.049.127.078.264.078.407v5.672c0 .212-.061.408-.161.579zM6.434 6.076L1.369 1.012c.161-.084.34-.136.533-.136h9.538c.213 0 .409.062.581.162L6.98 6.076a.393.393 0 0 1-.546 0zM.898 8.278a1.14 1.14 0 0 1-.156-.57V2.036c0-.164.035-.32.097-.462l3.38 3.381L.898 8.278zm4.989-1.653a1.167 1.167 0 0 0 1.642 0l1.075-1.078 3.245 3.243a1.157 1.157 0 0 1-.409.078H1.902c-.148 0-.289-.031-.419-.081l3.285-3.283 1.119 1.121z"/></svg><svg viewBox="0 0 23 22" id="ic_exel" xmlns="http://www.w3.org/2000/svg"><path fill-rule="evenodd" d="M22.005 18.983h-9.042v2.086a.696.696 0 0 1-.824.683L1.01 19.665a.693.693 0 0 1-.567-.682V3.681c0-.336.237-.623.567-.684L12.139.911a.696.696 0 0 1 .824.683v2.087h9.042c.384 0 .695.311.695.695v13.911a.696.696 0 0 1-.695.696zM10.034 8.282a.696.696 0 1 0-1.097-.855l-2.061 2.648L5.14 8.091a.696.696 0 0 0-1.047.916l1.913 2.187-1.94 2.493a.697.697 0 0 0 1.099.855l1.774-2.281 2.023 2.31a.692.692 0 0 0 .98.066.694.694 0 0 0 .066-.981l-2.2-2.514 2.226-2.86zm11.275-3.21h-8.346v1.391h2.086a.696.696 0 1 1 0 1.391h-2.086v1.391h2.086a.696.696 0 1 1 0 1.391h-2.086v1.391h2.086a.697.697 0 0 1 0 1.391h-2.086v1.391h2.086a.697.697 0 0 1 0 1.391h-2.086v1.392h8.346V5.072zm-3.478 1.391h1.391a.696.696 0 1 1 0 1.391h-1.391a.696.696 0 0 1 0-1.391zm0 2.782h1.391a.696.696 0 1 1 0 1.391h-1.391a.695.695 0 0 1 0-1.391zm0 2.782h1.391a.697.697 0 0 1 0 1.391h-1.391a.695.695 0 1 1 0-1.391zm0 2.782h1.391a.697.697 0 0 1 0 1.391h-1.391a.695.695 0 1 1 0-1.391z"/></svg><svg viewBox="0 0 22 21" id="ic_file" xmlns="http://www.w3.org/2000/svg"><path fill-rule="evenodd" d="M19.758 3.898a5.12 5.12 0 0 0-3.645-1.51 5.12 5.12 0 0 0-3.645 1.51l-6.561 6.561a3.095 3.095 0 0 0 0 4.373 3.096 3.096 0 0 0 4.374 0l3.786-3.786a1.03 1.03 0 1 0-1.458-1.458l-3.786 3.786a1.03 1.03 0 0 1-1.458-1.457l6.561-6.561a3.07 3.07 0 0 1 2.187-.907 3.095 3.095 0 0 1 2.187 5.28l-7.29 7.29a5.16 5.16 0 0 1-7.29 0 5.123 5.123 0 0 1-1.51-3.645c0-1.376.537-2.671 1.51-3.645l7.29-7.29A1.03 1.03 0 1 0 9.552.981l-7.29 7.29a7.168 7.168 0 0 0-2.113 5.103c0 1.928.75 3.74 2.113 5.103a7.225 7.225 0 0 0 10.206 0l7.29-7.29a5.16 5.16 0 0 0 0-7.289z"/></svg><svg viewBox="0 0 14 17" id="ic_location" xmlns="http://www.w3.org/2000/svg"><path fill-rule="evenodd" d="M11.327 2.274a6.643 6.643 0 0 0-9.4 0 6.643 6.643 0 0 0 0 9.4l4.349 4.349a.496.496 0 0 0 .702 0l4.349-4.349a6.642 6.642 0 0 0 0-9.4zM8.728 9.075a2.97 2.97 0 0 1-4.202 0 2.97 2.97 0 0 1 0-4.202 2.968 2.968 0 0 1 4.202 0 2.968 2.968 0 0 1 0 4.202z"/></svg><svg viewBox="0 0 11 11" id="ic_phone" xmlns="http://www.w3.org/2000/svg"><path fill-rule="evenodd" d="M8.889 6.752c-.374-.37-.842-.37-1.214 0a67.8 67.8 0 0 0-.847.849c-.076.079-.141.096-.234.043-.184-.1-.379-.181-.556-.291-.823-.518-1.512-1.183-2.123-1.932-.303-.373-.573-.771-.761-1.22-.039-.09-.031-.15.043-.224.283-.274.56-.556.839-.837.389-.392.389-.85-.002-1.243-.222-.225-.444-.444-.666-.668-.229-.23-.455-.461-.687-.688-.374-.365-.842-.365-1.214.003-.287.281-.561.57-.852.847-.27.255-.406.568-.434.933-.046.594.1 1.154.305 1.701.42 1.131 1.059 2.135 1.835 3.056a11.348 11.348 0 0 0 3.76 2.942c.659.32 1.341.565 2.083.606.511.029.955-.1 1.31-.499.243-.272.518-.52.775-.78.382-.386.384-.854.005-1.236a350.64 350.64 0 0 0-1.365-1.362z"/></svg><svg viewBox="0 0 16 15" id="ic_search" xmlns="http://www.w3.org/2000/svg"><path fill-rule="evenodd" d="M15.164 13.205l-3.156-3.157a6.284 6.284 0 0 0 1.189-3.684c0-1.69-.658-3.28-1.855-4.476A6.289 6.289 0 0 0 6.865.033a6.285 6.285 0 0 0-4.477 1.855A6.286 6.286 0 0 0 .533 6.364c0 1.692.659 3.281 1.855 4.478a6.291 6.291 0 0 0 4.477 1.855c1.341 0 2.615-.42 3.683-1.189l3.156 3.157a1.03 1.03 0 0 0 1.46 0 1.033 1.033 0 0 0 0-1.46zM3.848 9.382a4.244 4.244 0 0 1-1.25-3.018 4.24 4.24 0 0 1 1.25-3.017 4.238 4.238 0 0 1 3.017-1.25 4.24 4.24 0 0 1 3.017 1.25 4.24 4.24 0 0 1 1.25 3.017c0 1.14-.443 2.211-1.25 3.018a4.233 4.233 0 0 1-3.017 1.249 4.238 4.238 0 0 1-3.017-1.249z"/></svg><svg viewBox="0 0 34 35" id="ic_telegram" xmlns="http://www.w3.org/2000/svg"><path fill-rule="evenodd" d="M17 34.5c9.391 0 17-7.609 17-17S26.391.5 17 .5 0 8.109 0 17.5s7.609 17 17 17zM7.779 17.132l16.391-6.32c.761-.275 1.425.185 1.178 1.336l.002-.001-2.791 13.148c-.207.932-.761 1.158-1.536.719l-4.25-3.132-2.05 1.975c-.226.227-.417.417-.857.417l.302-4.324 7.877-7.116c.343-.302-.077-.472-.529-.172l-9.734 6.129-4.196-1.309c-.911-.289-.93-.911.193-1.35z"/></svg><svg viewBox="0 0 30 23" id="ic_to_cart" xmlns="http://www.w3.org/2000/svg"><path fill-rule="evenodd" d="M28.233 5.951h-1.845v1.836a1.079 1.079 0 1 1-2.158 0V5.951h-1.855a1.079 1.079 0 1 1 0-2.158h1.855V1.929a1.079 1.079 0 1 1 2.158 0v1.864h1.845a1.079 1.079 0 1 1 0 2.158zm-6.675 2.822l-1.886 7.993a1.175 1.175 0 0 1-1.147.908H7.704a1.175 1.175 0 0 1-1.147-.909L4.102 6.4H1.571a1.388 1.388 0 0 1 0-2.775h2.774c.543 0 1.001.32 1.229.774.323.147.577.426.664.79l.507 2.135h13.666c.362 0 .699.163.924.447.225.284.307.649.223 1.002zm-14.25.908l1.33 5.635h8.954l1.329-5.635H7.308zm1.92 9.114a1.65 1.65 0 1 1 0 3.3 1.65 1.65 0 0 1 0-3.3zm7.853 0a1.65 1.65 0 1 1 0 3.3 1.65 1.65 0 0 1 0-3.3z"/></svg><svg viewBox="0 0 33 33" id="ic_viber" xmlns="http://www.w3.org/2000/svg"><path fill-rule="evenodd" d="M24.849.5H8.625C4.163.5.5 4.163.5 8.651v16.224C.5 29.337 4.163 33 8.625 33h16.224C29.337 33 33 29.337 33 24.849V8.651C33 4.163 29.337.5 24.849.5zm-8.976 6.681c.052-.8.8-.516 1.187-.568 4.849.155 9.027 4.514 8.976 9.208 0 .465.155 1.135-.542 1.135-.671 0-.49-.696-.567-1.16-.645-4.979-2.967-7.326-8.022-8.1-.413-.051-1.058.026-1.032-.515zm7.248 8.847c-.774.103-.619-.568-.696-1.006-.516-3.044-1.6-4.153-4.721-4.823-.464-.104-1.186-.026-1.057-.723.103-.67.748-.438 1.238-.386 3.121.36 5.675 3.017 5.649 5.932-.052.309.155.903-.413 1.006zm-1.934-1.599c0 .412-.052.799-.516.851-.336.051-.542-.232-.594-.567-.129-1.239-.799-1.987-2.089-2.193-.387-.052-.748-.181-.567-.696.129-.336.438-.387.773-.387 1.393-.026 2.993 1.599 2.993 2.992zm4.9 9.518c-.541 1.47-2.373 2.966-3.946 2.94-.232-.051-.671-.129-1.058-.284-6.912-2.915-11.942-7.712-14.779-14.573-.955-2.296.051-4.256 2.45-5.03a1.847 1.847 0 0 1 1.29 0c1.031.361 3.637 3.895 3.688 4.927.052.799-.516 1.238-1.057 1.599-1.058.696-1.058 1.573-.594 2.579 1.006 2.218 2.734 3.766 4.979 4.746.799.361 1.599.336 2.14-.49.981-1.47 2.193-1.393 3.508-.49.671.464 1.342.903 1.961 1.393.851.696 1.934 1.264 1.418 2.683z"/></svg><svg viewBox="0 0 34 33" id="ic_whatsapp" xmlns="http://www.w3.org/2000/svg"><path fill-rule="evenodd" d="M17.004 0h-.008C7.898 0 .5 7.4.5 16.5c0 3.61 1.163 6.955 3.141 9.671l-2.056 6.13 6.342-2.027A16.359 16.359 0 0 0 17.004 33C26.102 33 33.5 25.598 33.5 16.5 33.5 7.402 26.102 0 17.004 0zm9.601 23.3c-.398 1.124-1.978 2.056-3.238 2.328-.862.184-1.988.331-5.779-1.241-4.849-2.009-7.972-6.936-8.215-7.256-.233-.319-1.959-2.609-1.959-4.977 0-2.367 1.202-3.52 1.687-4.015.398-.407 1.056-.592 1.687-.592.204 0 .388.01.552.018.485.021.729.05 1.048.815.398.959 1.368 3.327 1.483 3.57.118.244.235.574.07.893-.154.33-.29.477-.534.757-.243.281-.474.495-.718.796-.222.262-.474.543-.193 1.027.28.475 1.249 2.057 2.677 3.328 1.841 1.639 3.335 2.163 3.869 2.385.398.166.872.126 1.163-.183.369-.398.825-1.058 1.289-1.708.33-.466.747-.523 1.184-.358.446.154 2.803 1.32 3.288 1.561.484.243.804.359.922.563.115.204.115 1.163-.283 2.289z"/></svg></svg>